<svg width="400" height="300" viewBox="0 0 400 300" fill="none" xmlns="http://www.w3.org/2000/svg">
<rect width="400" height="300" fill="white"/>
<line x1="90.4942" y1="89.1321" x2="77.4942" y2="236.132" stroke="#6363F2" stroke-width="3"/>
<line x1="88.8026" y1="87.513" x2="201.803" y2="72.513" stroke="#6363F2" stroke-width="3"/>
<line x1="189.503" y1="245.905" x2="200.503" y2="71.9054" stroke="#6363F2" stroke-width="3"/>
<line x1="267.635" y1="219.622" x2="200.635" y2="72.6221" stroke="#6363F2" stroke-width="3"/>
<line x1="302.751" y1="90.4792" x2="201.751" y2="73.4792" stroke="#6363F2" stroke-width="3"/>
<line x1="304.221" y1="89.8711" x2="192.221" y2="246.871" stroke="#6363F2" stroke-width="3"/>
<line x1="303.815" y1="90.2591" x2="76.8153" y2="237.259" stroke="#6363F2" stroke-width="3"/>
<line x1="190.87" y1="247.494" x2="75.8701" y2="237.494" stroke="#6363F2" stroke-width="3"/>
<line x1="74.8052" y1="237.093" x2="200.805" y2="71.0931" stroke="#6363F2" stroke-width="3"/>
<line x1="41.3703" y1="144.639" x2="201.37" y2="70.6386" stroke="#6363F2" stroke-width="3"/>
<line x1="42.8359" y1="144.755" x2="191.836" y2="244.755" stroke="#6363F2" stroke-width="3"/>
<line x1="42.4592" y1="144.572" x2="269.459" y2="217.572" stroke="#6363F2" stroke-width="3"/>
<line x1="190.509" y1="244.583" x2="268.509" y2="217.583" stroke="#6363F2" stroke-width="3"/>
<line x1="88.198" y1="87.7324" x2="137.198" y2="56.7324" stroke="#6363F2" stroke-width="3"/>
<line x1="201.679" y1="73.4653" x2="137.679" y2="59.4654" stroke="#6363F2" stroke-width="3"/>
<path d="M286 219C286 228.389 278.389 236 269 236C259.611 236 252 228.389 252 219C252 209.611 259.611 202 269 202C278.389 202 286 209.611 286 219Z" fill="#FAEA97"/>
<path d="M265 216C265 217.657 264.105 219 263 219C261.895 219 261 217.657 261 216C261 214.343 261.895 213 263 213C264.105 213 265 214.343 265 216Z" fill="black"/>
<path d="M277 216C277 217.657 276.105 219 275 219C273.895 219 273 217.657 273 216C273 214.343 273.895 213 275 213C276.105 213 277 214.343 277 216Z" fill="black"/>
<path d="M262 224C262 231.5 276.5 230.5 276.5 224M286 219C286 228.389 278.389 236 269 236C259.611 236 252 228.389 252 219C252 209.611 259.611 202 269 202C278.389 202 286 209.611 286 219ZM265 216C265 217.657 264.105 219 263 219C261.895 219 261 217.657 261 216C261 214.343 261.895 213 263 213C264.105 213 265 214.343 265 216ZM277 216C277 217.657 276.105 219 275 219C273.895 219 273 217.657 273 216C273 214.343 273.895 213 275 213C276.105 213 277 214.343 277 216Z" stroke="black"/>
<path d="M208 246C208 255.389 200.389 263 191 263C181.611 263 174 255.389 174 246C174 236.611 181.611 229 191 229C200.389 229 208 236.611 208 246Z" fill="#FAEA97"/>
<path d="M187 243C187 244.657 186.105 246 185 246C183.895 246 183 244.657 183 243C183 241.343 183.895 240 185 240C186.105 240 187 241.343 187 243Z" fill="black"/>
<path d="M199 243C199 244.657 198.105 246 197 246C195.895 246 195 244.657 195 243C195 241.343 195.895 240 197 240C198.105 240 199 241.343 199 243Z" fill="black"/>
<path d="M184 251C184 258.5 198.5 257.5 198.5 251M208 246C208 255.389 200.389 263 191 263C181.611 263 174 255.389 174 246C174 236.611 181.611 229 191 229C200.389 229 208 236.611 208 246ZM187 243C187 244.657 186.105 246 185 246C183.895 246 183 244.657 183 243C183 241.343 183.895 240 185 240C186.105 240 187 241.343 187 243ZM199 243C199 244.657 198.105 246 197 246C195.895 246 195 244.657 195 243C195 241.343 195.895 240 197 240C198.105 240 199 241.343 199 243Z" stroke="black"/>
<path d="M106 89C106 98.3888 98.3888 106 89 106C79.6112 106 72 98.3888 72 89C72 79.6112 79.6112 72 89 72C98.3888 72 106 79.6112 106 89Z" fill="#FAEA97"/>
<path d="M85 86C85 87.6569 84.1046 89 83 89C81.8954 89 81 87.6569 81 86C81 84.3431 81.8954 83 83 83C84.1046 83 85 84.3431 85 86Z" fill="black"/>
<path d="M97 86C97 87.6569 96.1046 89 95 89C93.8954 89 93 87.6569 93 86C93 84.3431 93.8954 83 95 83C96.1046 83 97 84.3431 97 86Z" fill="black"/>
<path d="M82 94C82 101.5 96.5 100.5 96.5 94M106 89C106 98.3888 98.3888 106 89 106C79.6112 106 72 98.3888 72 89C72 79.6112 79.6112 72 89 72C98.3888 72 106 79.6112 106 89ZM85 86C85 87.6569 84.1046 89 83 89C81.8954 89 81 87.6569 81 86C81 84.3431 81.8954 83 83 83C84.1046 83 85 84.3431 85 86ZM97 86C97 87.6569 96.1046 89 95 89C93.8954 89 93 87.6569 93 86C93 84.3431 93.8954 83 95 83C96.1046 83 97 84.3431 97 86Z" stroke="black"/>
<path d="M155 55C155 64.3888 147.389 72 138 72C128.611 72 121 64.3888 121 55C121 45.6112 128.611 38 138 38C147.389 38 155 45.6112 155 55Z" fill="#FAEA97"/>
<path d="M134 52C134 53.6569 133.105 55 132 55C130.895 55 130 53.6569 130 52C130 50.3431 130.895 49 132 49C133.105 49 134 50.3431 134 52Z" fill="black"/>
<path d="M146 52C146 53.6569 145.105 55 144 55C142.895 55 142 53.6569 142 52C142 50.3431 142.895 49 144 49C145.105 49 146 50.3431 146 52Z" fill="black"/>
<path d="M131 60C131 67.5 145.5 66.5 145.5 60M155 55C155 64.3888 147.389 72 138 72C128.611 72 121 64.3888 121 55C121 45.6112 128.611 38 138 38C147.389 38 155 45.6112 155 55ZM134 52C134 53.6569 133.105 55 132 55C130.895 55 130 53.6569 130 52C130 50.3431 130.895 49 132 49C133.105 49 134 50.3431 134 52ZM146 52C146 53.6569 145.105 55 144 55C142.895 55 142 53.6569 142 52C142 50.3431 142.895 49 144 49C145.105 49 146 50.3431 146 52Z" stroke="black"/>
<path d="M59 146C59 155.389 51.3888 163 42 163C32.6112 163 25 155.389 25 146C25 136.611 32.6112 129 42 129C51.3888 129 59 136.611 59 146Z" fill="#FAEA97"/>
<path d="M38 143C38 144.657 37.1046 146 36 146C34.8954 146 34 144.657 34 143C34 141.343 34.8954 140 36 140C37.1046 140 38 141.343 38 143Z" fill="black"/>
<path d="M50 143C50 144.657 49.1046 146 48 146C46.8954 146 46 144.657 46 143C46 141.343 46.8954 140 48 140C49.1046 140 50 141.343 50 143Z" fill="black"/>
<path d="M35 151C35 158.5 49.5 157.5 49.5 151M59 146C59 155.389 51.3888 163 42 163C32.6112 163 25 155.389 25 146C25 136.611 32.6112 129 42 129C51.3888 129 59 136.611 59 146ZM38 143C38 144.657 37.1046 146 36 146C34.8954 146 34 144.657 34 143C34 141.343 34.8954 140 36 140C37.1046 140 38 141.343 38 143ZM50 143C50 144.657 49.1046 146 48 146C46.8954 146 46 144.657 46 143C46 141.343 46.8954 140 48 140C49.1046 140 50 141.343 50 143Z" stroke="black"/>
<path d="M93 236C93 245.389 85.3888 253 76 253C66.6112 253 59 245.389 59 236C59 226.611 66.6112 219 76 219C85.3888 219 93 226.611 93 236Z" fill="#FAEA97"/>
<path d="M72 233C72 234.657 71.1046 236 70 236C68.8954 236 68 234.657 68 233C68 231.343 68.8954 230 70 230C71.1046 230 72 231.343 72 233Z" fill="black"/>
<path d="M84 233C84 234.657 83.1046 236 82 236C80.8954 236 80 234.657 80 233C80 231.343 80.8954 230 82 230C83.1046 230 84 231.343 84 233Z" fill="black"/>
<path d="M69 241C69 248.5 83.5 247.5 83.5 241M93 236C93 245.389 85.3888 253 76 253C66.6112 253 59 245.389 59 236C59 226.611 66.6112 219 76 219C85.3888 219 93 226.611 93 236ZM72 233C72 234.657 71.1046 236 70 236C68.8954 236 68 234.657 68 233C68 231.343 68.8954 230 70 230C71.1046 230 72 231.343 72 233ZM84 233C84 234.657 83.1046 236 82 236C80.8954 236 80 234.657 80 233C80 231.343 80.8954 230 82 230C83.1046 230 84 231.343 84 233Z" stroke="black"/>
<path d="M320 89C320 98.3888 312.389 106 303 106C293.611 106 286 98.3888 286 89C286 79.6112 293.611 72 303 72C312.389 72 320 79.6112 320 89Z" fill="#FAEA97"/>
<path d="M299 86C299 87.6569 298.105 89 297 89C295.895 89 295 87.6569 295 86C295 84.3431 295.895 83 297 83C298.105 83 299 84.3431 299 86Z" fill="black"/>
<path d="M311 86C311 87.6569 310.105 89 309 89C307.895 89 307 87.6569 307 86C307 84.3431 307.895 83 309 83C310.105 83 311 84.3431 311 86Z" fill="black"/>
<path d="M296 94C296 101.5 310.5 100.5 310.5 94M320 89C320 98.3888 312.389 106 303 106C293.611 106 286 98.3888 286 89C286 79.6112 293.611 72 303 72C312.389 72 320 79.6112 320 89ZM299 86C299 87.6569 298.105 89 297 89C295.895 89 295 87.6569 295 86C295 84.3431 295.895 83 297 83C298.105 83 299 84.3431 299 86ZM311 86C311 87.6569 310.105 89 309 89C307.895 89 307 87.6569 307 86C307 84.3431 307.895 83 309 83C310.105 83 311 84.3431 311 86Z" stroke="black"/>
<path d="M219 72C219 81.3888 211.389 89 202 89C192.611 89 185 81.3888 185 72C185 62.6112 192.611 55 202 55C211.389 55 219 62.6112 219 72Z" fill="#FAEA97"/>
<path d="M198 69C198 70.6569 197.105 72 196 72C194.895 72 194 70.6569 194 69C194 67.3431 194.895 66 196 66C197.105 66 198 67.3431 198 69Z" fill="black"/>
<path d="M210 69C210 70.6569 209.105 72 208 72C206.895 72 206 70.6569 206 69C206 67.3431 206.895 66 208 66C209.105 66 210 67.3431 210 69Z" fill="black"/>
<path d="M195 77C195 84.5 209.5 83.5 209.5 77M219 72C219 81.3888 211.389 89 202 89C192.611 89 185 81.3888 185 72C185 62.6112 192.611 55 202 55C211.389 55 219 62.6112 219 72ZM198 69C198 70.6569 197.105 72 196 72C194.895 72 194 70.6569 194 69C194 67.3431 194.895 66 196 66C197.105 66 198 67.3431 198 69ZM210 69C210 70.6569 209.105 72 208 72C206.895 72 206 70.6569 206 69C206 67.3431 206.895 66 208 66C209.105 66 210 67.3431 210 69Z" stroke="black"/>
<path d="M340.945 156.812L340.859 157.672C340.792 158.359 340.661 159.044 340.469 159.727C340.281 160.414 340.083 161.036 339.875 161.594C339.672 162.151 339.508 162.589 339.383 162.906H337.227C337.305 162.599 337.411 162.169 337.547 161.617C337.682 161.07 337.81 160.456 337.93 159.773C338.049 159.091 338.125 158.396 338.156 157.687L338.195 156.812H340.945ZM348.055 156.188V153.523L354.734 143H357.031V146.687H355.672L351.461 153.352V153.477H360.953V156.188H348.055ZM355.734 159V155.375L355.797 154.195V143H358.969V159H355.734Z" fill="black"/>
</svg>
