<svg width="400" height="300" viewBox="0 0 400 300" fill="none" xmlns="http://www.w3.org/2000/svg">
<rect width="400" height="300" fill="white"/>
<rect x="62" y="93" width="138" height="29" fill="#B6F0E7"/>
<rect x="62" y="203" width="138" height="29" fill="#B6F0E7"/>
<rect x="62" y="174" width="138" height="29" fill="#B6F0E7"/>
<path d="M90.0469 51H92.4688V61.5234C92.4688 62.6432 92.2057 63.6354 91.6797 64.5C91.1536 65.3594 90.4141 66.0365 89.4609 66.5312C88.5078 67.0208 87.3906 67.2656 86.1094 67.2656C84.8333 67.2656 83.7188 67.0208 82.7656 66.5312C81.8125 66.0365 81.0729 65.3594 80.5469 64.5C80.0208 63.6354 79.7578 62.6432 79.7578 61.5234V51H82.1719V61.3281C82.1719 62.0521 82.3307 62.6953 82.6484 63.2578C82.9714 63.8203 83.4271 64.263 84.0156 64.5859C84.6042 64.9036 85.3021 65.0625 86.1094 65.0625C86.9219 65.0625 87.6224 64.9036 88.2109 64.5859C88.8047 64.263 89.2578 63.8203 89.5703 63.2578C89.888 62.6953 90.0469 62.0521 90.0469 61.3281V51ZM102.363 57.6172V55.5703H112.371V57.6172H102.363ZM102.363 62.4297V60.3828H112.371V62.4297H102.363ZM121.283 59.0469V57.875C122.163 57.875 122.778 57.6953 123.127 57.3359C123.476 56.9714 123.65 56.3698 123.65 55.5313V53.2891C123.65 52.4922 123.739 51.8229 123.916 51.2812C124.098 50.7344 124.374 50.2969 124.744 49.9687C125.114 49.6406 125.583 49.4036 126.15 49.2578C126.718 49.112 127.387 49.0391 128.158 49.0391V50.8906C127.554 50.8906 127.083 50.9792 126.744 51.1562C126.406 51.3333 126.169 51.6094 126.033 51.9844C125.903 52.3542 125.838 52.8281 125.838 53.4062V56.25C125.838 56.651 125.778 57.0234 125.658 57.3672C125.538 57.7057 125.317 58 124.994 58.25C124.671 58.5 124.21 58.6953 123.611 58.8359C123.012 58.9766 122.236 59.0469 121.283 59.0469ZM128.158 68.9688C127.387 68.9688 126.718 68.8958 126.15 68.75C125.583 68.6042 125.114 68.3672 124.744 68.0391C124.374 67.7109 124.098 67.276 123.916 66.7344C123.739 66.1875 123.65 65.5156 123.65 64.7187V62.4687C123.65 61.6354 123.476 61.0365 123.127 60.6719C122.778 60.3073 122.163 60.125 121.283 60.125V58.9609C122.236 58.9609 123.012 59.0312 123.611 59.1719C124.21 59.3073 124.671 59.5026 124.994 59.7578C125.317 60.0078 125.538 60.3047 125.658 60.6484C125.778 60.987 125.838 61.3568 125.838 61.7578V64.6016C125.838 65.1745 125.903 65.6484 126.033 66.0234C126.169 66.3932 126.406 66.6693 126.744 66.8516C127.083 67.0286 127.554 67.1172 128.158 67.1172V68.9688ZM121.283 60.125V57.875H123.447V60.125H121.283ZM136.441 51V67H134.02V53.4219H133.926L130.098 55.9219V53.6094L134.09 51H136.441ZM142.916 64.8125L142.799 65.6641C142.721 66.2891 142.588 66.9401 142.4 67.6172C142.218 68.2995 142.028 68.9323 141.83 69.5156C141.637 70.099 141.479 70.5625 141.354 70.9063H139.697C139.765 70.5833 139.859 70.1458 139.979 69.5938C140.098 69.0469 140.215 68.4349 140.33 67.7578C140.445 67.0807 140.531 66.3906 140.588 65.6875L140.666 64.8125H142.916ZM151.748 67V65.25L157.162 59.6406C157.74 59.0312 158.217 58.4974 158.592 58.0391C158.972 57.5755 159.256 57.1354 159.443 56.7187C159.631 56.3021 159.725 55.8594 159.725 55.3906C159.725 54.8594 159.6 54.401 159.35 54.0156C159.1 53.625 158.758 53.3255 158.326 53.1172C157.894 52.9036 157.407 52.7969 156.865 52.7969C156.292 52.7969 155.792 52.9141 155.365 53.1484C154.938 53.3828 154.61 53.7135 154.381 54.1406C154.152 54.5677 154.037 55.0677 154.037 55.6406H151.732C151.732 54.6667 151.956 53.8151 152.404 53.0859C152.852 52.3568 153.467 51.7917 154.248 51.3906C155.029 50.9844 155.917 50.7812 156.912 50.7812C157.917 50.7812 158.803 50.9818 159.568 51.3828C160.339 51.7786 160.941 52.3203 161.373 53.0078C161.805 53.6901 162.021 54.4609 162.021 55.3203C162.021 55.9141 161.91 56.4948 161.686 57.0625C161.467 57.6302 161.084 58.263 160.537 58.9609C159.99 59.6536 159.23 60.4948 158.256 61.4844L155.076 64.8125V64.9297H162.279V67H151.748ZM168.311 64.8125L168.193 65.6641C168.115 66.2891 167.982 66.9401 167.795 67.6172C167.613 68.2995 167.423 68.9323 167.225 69.5156C167.032 70.099 166.873 70.5625 166.748 70.9063H165.092C165.16 70.5833 165.253 70.1458 165.373 69.5938C165.493 69.0469 165.61 68.4349 165.725 67.7578C165.839 67.0807 165.925 66.3906 165.982 65.6875L166.061 64.8125H168.311ZM182.713 67.2187C181.64 67.2187 180.682 67.0339 179.838 66.6641C178.999 66.2943 178.335 65.7812 177.846 65.125C177.361 64.4635 177.101 63.6979 177.064 62.8281H179.518C179.549 63.3021 179.708 63.7135 179.994 64.0625C180.286 64.4062 180.666 64.6719 181.135 64.8594C181.604 65.0469 182.124 65.1406 182.697 65.1406C183.327 65.1406 183.885 65.0312 184.369 64.8125C184.859 64.5937 185.242 64.2891 185.518 63.8984C185.794 63.5026 185.932 63.0469 185.932 62.5312C185.932 61.9948 185.794 61.5234 185.518 61.1172C185.247 60.7057 184.848 60.3828 184.322 60.1484C183.801 59.9141 183.171 59.7969 182.432 59.7969H181.08V57.8281H182.432C183.025 57.8281 183.546 57.7214 183.994 57.5078C184.447 57.2943 184.801 56.9974 185.057 56.6172C185.312 56.2318 185.439 55.7812 185.439 55.2656C185.439 54.7708 185.327 54.3411 185.104 53.9766C184.885 53.6068 184.572 53.3177 184.166 53.1094C183.765 52.901 183.291 52.7969 182.744 52.7969C182.223 52.7969 181.736 52.8932 181.283 53.0859C180.835 53.2734 180.471 53.5443 180.189 53.8984C179.908 54.2474 179.757 54.6667 179.736 55.1562H177.4C177.426 54.2917 177.682 53.5312 178.166 52.875C178.656 52.2187 179.301 51.7057 180.104 51.3359C180.906 50.9661 181.796 50.7812 182.775 50.7812C183.801 50.7812 184.687 50.9818 185.432 51.3828C186.182 51.7786 186.76 52.3073 187.166 52.9687C187.577 53.6302 187.781 54.3542 187.775 55.1406C187.781 56.0365 187.531 56.7969 187.025 57.4219C186.525 58.0469 185.859 58.4661 185.025 58.6797V58.8047C186.088 58.9661 186.911 59.388 187.494 60.0703C188.083 60.7526 188.374 61.599 188.369 62.6094C188.374 63.4896 188.13 64.2786 187.635 64.9766C187.145 65.6745 186.476 66.224 185.627 66.625C184.778 67.0208 183.807 67.2187 182.713 67.2187ZM193.92 64.8125L193.803 65.6641C193.725 66.2891 193.592 66.9401 193.404 67.6172C193.222 68.2995 193.032 68.9323 192.834 69.5156C192.641 70.099 192.482 70.5625 192.357 70.9063H190.701C190.769 70.5833 190.863 70.1458 190.982 69.5938C191.102 69.0469 191.219 68.4349 191.334 67.7578C191.449 67.0807 191.535 66.3906 191.592 65.6875L191.67 64.8125H193.92ZM202.416 63.875V61.9219L209.33 51H210.869V53.875H209.893L204.947 61.7031V61.8281H214.424V63.875H202.416ZM210.002 67V63.2812L210.018 62.3906V51H212.307V67H210.002ZM219.615 64.8125L219.498 65.6641C219.42 66.2891 219.287 66.9401 219.1 67.6172C218.917 68.2995 218.727 68.9323 218.529 69.5156C218.337 70.099 218.178 70.5625 218.053 70.9063H216.396C216.464 70.5833 216.558 70.1458 216.678 69.5938C216.798 69.0469 216.915 68.4349 217.029 67.7578C217.144 67.0807 217.23 66.3906 217.287 65.6875L217.365 64.8125H219.615ZM233.729 67.2187C232.749 67.2187 231.869 67.0312 231.088 66.6562C230.312 66.276 229.692 65.7552 229.229 65.0938C228.765 64.4323 228.518 63.6771 228.486 62.8281H230.83C230.887 63.5156 231.192 64.0807 231.744 64.5234C232.296 64.9661 232.958 65.1875 233.729 65.1875C234.343 65.1875 234.887 65.0469 235.361 64.7656C235.84 64.4792 236.215 64.0859 236.486 63.5859C236.762 63.0859 236.9 62.5156 236.9 61.875C236.9 61.224 236.76 60.6432 236.479 60.1328C236.197 59.6224 235.809 59.2214 235.314 58.9297C234.825 58.638 234.262 58.4896 233.627 58.4844C233.143 58.4844 232.656 58.5677 232.166 58.7344C231.676 58.901 231.281 59.1198 230.979 59.3906L228.768 59.0625L229.666 51H238.463V53.0703H231.674L231.166 57.5469H231.26C231.572 57.2448 231.986 56.9922 232.502 56.7891C233.023 56.5859 233.58 56.4844 234.174 56.4844C235.148 56.4844 236.015 56.7161 236.775 57.1797C237.541 57.6432 238.143 58.276 238.58 59.0781C239.023 59.875 239.242 60.7917 239.236 61.8281C239.242 62.8646 239.007 63.7891 238.533 64.6016C238.064 65.4141 237.413 66.0547 236.58 66.5234C235.752 66.987 234.801 67.2187 233.729 67.2187ZM244.58 64.8125L244.463 65.6641C244.385 66.2891 244.252 66.9401 244.064 67.6172C243.882 68.2995 243.692 68.9323 243.494 69.5156C243.301 70.099 243.143 70.5625 243.018 70.9063H241.361C241.429 70.5833 241.523 70.1458 241.643 69.5938C241.762 69.0469 241.88 68.4349 241.994 67.7578C242.109 67.0807 242.195 66.3906 242.252 65.6875L242.33 64.8125H244.58ZM258.998 67.2187C258.285 67.2083 257.581 67.0781 256.889 66.8281C256.201 66.5781 255.576 66.1615 255.014 65.5781C254.451 64.9948 254.001 64.2109 253.662 63.2266C253.329 62.2422 253.162 61.013 253.162 59.5391C253.162 58.1432 253.3 56.9036 253.576 55.8203C253.857 54.737 254.261 53.8229 254.787 53.0781C255.313 52.3281 255.949 51.7578 256.693 51.3672C257.438 50.9766 258.274 50.7812 259.201 50.7812C260.154 50.7812 261.001 50.9687 261.74 51.3437C262.48 51.7187 263.079 52.237 263.537 52.8984C264.001 53.5599 264.295 54.3125 264.42 55.1562H262.037C261.876 54.4896 261.555 53.9453 261.076 53.5234C260.597 53.1016 259.972 52.8906 259.201 52.8906C258.029 52.8906 257.115 53.401 256.459 54.4219C255.808 55.4427 255.48 56.862 255.475 58.6797H255.592C255.868 58.2266 256.206 57.8411 256.607 57.5234C257.014 57.2005 257.467 56.9531 257.967 56.7812C258.472 56.6042 259.003 56.5156 259.561 56.5156C260.488 56.5156 261.326 56.7422 262.076 57.1953C262.831 57.6432 263.433 58.263 263.881 59.0547C264.329 59.8464 264.553 60.7526 264.553 61.7734C264.553 62.7943 264.321 63.7187 263.857 64.5469C263.399 65.375 262.753 66.0312 261.92 66.5156C261.087 66.9948 260.113 67.2292 258.998 67.2187ZM258.99 65.1875C259.605 65.1875 260.154 65.0365 260.639 64.7344C261.123 64.4323 261.506 64.026 261.787 63.5156C262.068 63.0052 262.209 62.4349 262.209 61.8047C262.209 61.1901 262.071 60.6302 261.795 60.125C261.524 59.6198 261.149 59.2187 260.67 58.9219C260.196 58.625 259.654 58.4766 259.045 58.4766C258.581 58.4766 258.152 58.5651 257.756 58.7422C257.365 58.9193 257.021 59.1641 256.725 59.4766C256.428 59.7891 256.193 60.1484 256.021 60.5547C255.855 60.9557 255.771 61.3802 255.771 61.8281C255.771 62.4271 255.91 62.9818 256.186 63.4922C256.467 64.0026 256.85 64.4141 257.334 64.7266C257.824 65.0339 258.376 65.1875 258.99 65.1875ZM269.738 64.8125L269.621 65.6641C269.543 66.2891 269.41 66.9401 269.223 67.6172C269.04 68.2995 268.85 68.9323 268.652 69.5156C268.46 70.099 268.301 70.5625 268.176 70.9063H266.52C266.587 70.5833 266.681 70.1458 266.801 69.5938C266.921 69.0469 267.038 68.4349 267.152 67.7578C267.267 67.0807 267.353 66.3906 267.41 65.6875L267.488 64.8125H269.738ZM279.109 67L286.094 53.1875V53.0703H278.016V51H288.594V53.1406L281.633 67H279.109ZM297.318 58.9609V60.125C296.438 60.125 295.824 60.3073 295.475 60.6719C295.126 61.0365 294.951 61.6354 294.951 62.4687V64.7187C294.951 65.5156 294.86 66.1875 294.678 66.7344C294.501 67.276 294.227 67.7109 293.857 68.0391C293.488 68.3672 293.019 68.6042 292.451 68.75C291.883 68.8958 291.214 68.9688 290.443 68.9688V67.1172C291.048 67.1172 291.519 67.0286 291.857 66.8516C292.196 66.6693 292.43 66.3932 292.561 66.0234C292.696 65.6484 292.764 65.1745 292.764 64.6016V61.7578C292.764 61.3568 292.824 60.987 292.943 60.6484C293.063 60.3047 293.285 60.0078 293.607 59.7578C293.93 59.5026 294.391 59.3073 294.99 59.1719C295.589 59.0312 296.365 58.9609 297.318 58.9609ZM290.443 49.0391C291.214 49.0391 291.883 49.112 292.451 49.2578C293.019 49.4036 293.488 49.6406 293.857 49.9687C294.227 50.2969 294.501 50.7344 294.678 51.2812C294.86 51.8229 294.951 52.4922 294.951 53.2891V55.5313C294.951 56.3698 295.126 56.9714 295.475 57.3359C295.824 57.6953 296.438 57.875 297.318 57.875V59.0469C296.365 59.0469 295.589 58.9766 294.99 58.8359C294.391 58.6953 293.93 58.5 293.607 58.25C293.285 58 293.063 57.7057 292.943 57.3672C292.824 57.0234 292.764 56.651 292.764 56.25V53.4062C292.764 52.8281 292.696 52.3542 292.561 51.9844C292.43 51.6094 292.196 51.3333 291.857 51.1562C291.519 50.9792 291.048 50.8906 290.443 50.8906V49.0391ZM297.318 57.875V60.125H295.154V57.875H297.318Z" fill="black"/>
<path d="M79.4844 104.203C79.401 103.464 79.0573 102.891 78.4531 102.484C77.849 102.073 77.0885 101.867 76.1719 101.867C75.5156 101.867 74.9479 101.971 74.4688 102.18C73.9896 102.383 73.6172 102.664 73.3516 103.023C73.0911 103.378 72.9609 103.781 72.9609 104.234C72.9609 104.615 73.0495 104.943 73.2266 105.219C73.4089 105.495 73.6458 105.727 73.9375 105.914C74.2344 106.096 74.5521 106.25 74.8906 106.375C75.2292 106.495 75.5547 106.594 75.8672 106.672L77.4297 107.078C77.9401 107.203 78.4635 107.372 79 107.586C79.5365 107.799 80.0339 108.081 80.4922 108.43C80.9505 108.779 81.3203 109.211 81.6016 109.727C81.888 110.242 82.0313 110.859 82.0313 111.578C82.0313 112.484 81.7969 113.289 81.3281 113.992C80.8646 114.695 80.1901 115.25 79.3047 115.656C78.4245 116.063 77.3594 116.266 76.1094 116.266C74.9115 116.266 73.875 116.076 73 115.695C72.125 115.315 71.4401 114.776 70.9453 114.078C70.4505 113.375 70.1771 112.542 70.125 111.578H72.5469C72.5938 112.156 72.7813 112.638 73.1094 113.023C73.4427 113.404 73.8672 113.687 74.3828 113.875C74.9036 114.057 75.474 114.148 76.0938 114.148C76.776 114.148 77.3828 114.042 77.9141 113.828C78.4505 113.609 78.8724 113.307 79.1797 112.922C79.487 112.531 79.6406 112.076 79.6406 111.555C79.6406 111.081 79.5052 110.693 79.2344 110.391C78.9688 110.089 78.6068 109.839 78.1484 109.641C77.6953 109.443 77.1823 109.268 76.6094 109.117L74.7188 108.602C73.4375 108.253 72.4219 107.74 71.6719 107.062C70.9271 106.385 70.5547 105.49 70.5547 104.375C70.5547 103.453 70.8047 102.648 71.3047 101.961C71.8047 101.273 72.4818 100.74 73.3359 100.359C74.1901 99.974 75.1536 99.7812 76.2266 99.7812C77.3099 99.7812 78.2656 99.9714 79.0938 100.352C79.9271 100.732 80.5833 101.255 81.0625 101.922C81.5417 102.583 81.7917 103.344 81.8125 104.203H79.4844ZM86.4941 118.75V111.016H86.4238L84.0098 112.594V110.805L86.5332 109.156H88.3379V118.75H86.4941ZM98.2402 108.32V106.266H108.248V108.32H98.2402ZM98.2402 113.133V111.078H108.248V113.133H98.2402ZM117.16 108.047V106.875C118.04 106.875 118.655 106.695 119.004 106.336C119.353 105.971 119.527 105.37 119.527 104.531V102.289C119.527 101.492 119.616 100.823 119.793 100.281C119.975 99.7344 120.251 99.2969 120.621 98.9687C120.991 98.6406 121.46 98.4036 122.027 98.2578C122.595 98.112 123.264 98.0391 124.035 98.0391V99.8906C123.431 99.8906 122.96 99.9792 122.621 100.156C122.283 100.333 122.046 100.609 121.91 100.984C121.78 101.354 121.715 101.828 121.715 102.406V105.25C121.715 105.651 121.655 106.023 121.535 106.367C121.415 106.706 121.194 107 120.871 107.25C120.548 107.5 120.087 107.695 119.488 107.836C118.889 107.977 118.113 108.047 117.16 108.047ZM124.035 117.969C123.264 117.969 122.595 117.896 122.027 117.75C121.46 117.604 120.991 117.367 120.621 117.039C120.251 116.711 119.975 116.276 119.793 115.734C119.616 115.187 119.527 114.516 119.527 113.719V111.469C119.527 110.635 119.353 110.036 119.004 109.672C118.655 109.307 118.04 109.125 117.16 109.125V107.961C118.113 107.961 118.889 108.031 119.488 108.172C120.087 108.307 120.548 108.503 120.871 108.758C121.194 109.008 121.415 109.305 121.535 109.648C121.655 109.987 121.715 110.357 121.715 110.758V113.602C121.715 114.174 121.78 114.648 121.91 115.023C122.046 115.393 122.283 115.669 122.621 115.852C122.96 116.029 123.431 116.117 124.035 116.117V117.969ZM117.16 109.125V106.875H119.324V109.125H117.16ZM132.318 100V116H129.896V102.422H129.803L125.975 104.922V102.609L129.967 100H132.318ZM138.793 113.812L138.676 114.664C138.598 115.289 138.465 115.94 138.277 116.617C138.095 117.299 137.905 117.932 137.707 118.516C137.514 119.099 137.355 119.563 137.23 119.906H135.574C135.642 119.583 135.736 119.146 135.855 118.594C135.975 118.047 136.092 117.435 136.207 116.758C136.322 116.081 136.408 115.391 136.465 114.687L136.543 113.812H138.793ZM147.625 116V114.25L153.039 108.641C153.617 108.031 154.094 107.497 154.469 107.039C154.849 106.576 155.133 106.135 155.32 105.719C155.508 105.302 155.602 104.859 155.602 104.391C155.602 103.859 155.477 103.401 155.227 103.016C154.977 102.625 154.635 102.326 154.203 102.117C153.771 101.904 153.284 101.797 152.742 101.797C152.169 101.797 151.669 101.914 151.242 102.148C150.815 102.383 150.487 102.714 150.258 103.141C150.029 103.568 149.914 104.068 149.914 104.641H147.609C147.609 103.667 147.833 102.815 148.281 102.086C148.729 101.357 149.344 100.792 150.125 100.391C150.906 99.9844 151.794 99.7812 152.789 99.7812C153.794 99.7812 154.68 99.9818 155.445 100.383C156.216 100.779 156.818 101.32 157.25 102.008C157.682 102.69 157.898 103.461 157.898 104.32C157.898 104.914 157.786 105.495 157.563 106.062C157.344 106.63 156.961 107.263 156.414 107.961C155.867 108.654 155.107 109.495 154.133 110.484L150.953 113.812V113.93H158.156V116H147.625ZM164.188 113.812L164.07 114.664C163.992 115.289 163.859 115.94 163.672 116.617C163.49 117.299 163.299 117.932 163.102 118.516C162.909 119.099 162.75 119.563 162.625 119.906H160.969C161.036 119.583 161.13 119.146 161.25 118.594C161.37 118.047 161.487 117.435 161.602 116.758C161.716 116.081 161.802 115.391 161.859 114.687L161.938 113.812H164.188ZM178.59 116.219C177.517 116.219 176.559 116.034 175.715 115.664C174.876 115.294 174.212 114.781 173.723 114.125C173.238 113.464 172.978 112.698 172.941 111.828H175.395C175.426 112.302 175.585 112.714 175.871 113.062C176.163 113.406 176.543 113.672 177.012 113.859C177.48 114.047 178.001 114.141 178.574 114.141C179.204 114.141 179.762 114.031 180.246 113.812C180.736 113.594 181.118 113.289 181.395 112.898C181.671 112.503 181.809 112.047 181.809 111.531C181.809 110.995 181.671 110.523 181.395 110.117C181.124 109.706 180.725 109.383 180.199 109.148C179.678 108.914 179.048 108.797 178.309 108.797H176.957V106.828H178.309C178.902 106.828 179.423 106.721 179.871 106.508C180.324 106.294 180.678 105.997 180.934 105.617C181.189 105.232 181.316 104.781 181.316 104.266C181.316 103.771 181.204 103.341 180.98 102.977C180.762 102.607 180.449 102.318 180.043 102.109C179.642 101.901 179.168 101.797 178.621 101.797C178.1 101.797 177.613 101.893 177.16 102.086C176.712 102.273 176.348 102.544 176.066 102.898C175.785 103.247 175.634 103.667 175.613 104.156H173.277C173.303 103.292 173.559 102.531 174.043 101.875C174.533 101.219 175.178 100.706 175.98 100.336C176.783 99.9661 177.673 99.7812 178.652 99.7812C179.678 99.7812 180.564 99.9818 181.309 100.383C182.059 100.779 182.637 101.307 183.043 101.969C183.454 102.63 183.658 103.354 183.652 104.141C183.658 105.036 183.408 105.797 182.902 106.422C182.402 107.047 181.736 107.466 180.902 107.68V107.805C181.965 107.966 182.788 108.388 183.371 109.07C183.96 109.753 184.251 110.599 184.246 111.609C184.251 112.49 184.007 113.279 183.512 113.977C183.022 114.674 182.353 115.224 181.504 115.625C180.655 116.021 179.684 116.219 178.59 116.219ZM193.207 107.961V109.125C192.327 109.125 191.712 109.307 191.363 109.672C191.014 110.036 190.84 110.635 190.84 111.469V113.719C190.84 114.516 190.749 115.187 190.566 115.734C190.389 116.276 190.116 116.711 189.746 117.039C189.376 117.367 188.908 117.604 188.34 117.75C187.772 117.896 187.103 117.969 186.332 117.969V116.117C186.936 116.117 187.408 116.029 187.746 115.852C188.085 115.669 188.319 115.393 188.449 115.023C188.585 114.648 188.652 114.174 188.652 113.602V110.758C188.652 110.357 188.712 109.987 188.832 109.648C188.952 109.305 189.173 109.008 189.496 108.758C189.819 108.503 190.28 108.307 190.879 108.172C191.478 108.031 192.254 107.961 193.207 107.961ZM186.332 98.0391C187.103 98.0391 187.772 98.112 188.34 98.2578C188.908 98.4036 189.376 98.6406 189.746 98.9687C190.116 99.2969 190.389 99.7344 190.566 100.281C190.749 100.823 190.84 101.492 190.84 102.289V104.531C190.84 105.37 191.014 105.971 191.363 106.336C191.712 106.695 192.327 106.875 193.207 106.875V108.047C192.254 108.047 191.478 107.977 190.879 107.836C190.28 107.695 189.819 107.5 189.496 107.25C189.173 107 188.952 106.706 188.832 106.367C188.712 106.023 188.652 105.651 188.652 105.25V102.406C188.652 101.828 188.585 101.354 188.449 100.984C188.319 100.609 188.085 100.333 187.746 100.156C187.408 99.9792 186.936 99.8906 186.332 99.8906V98.0391ZM193.207 106.875V109.125H191.043V106.875H193.207ZM79.4844 131.203C79.401 130.464 79.0573 129.891 78.4531 129.484C77.849 129.073 77.0885 128.867 76.1719 128.867C75.5156 128.867 74.9479 128.971 74.4688 129.18C73.9896 129.383 73.6172 129.664 73.3516 130.023C73.0911 130.378 72.9609 130.781 72.9609 131.234C72.9609 131.615 73.0495 131.943 73.2266 132.219C73.4089 132.495 73.6458 132.727 73.9375 132.914C74.2344 133.096 74.5521 133.25 74.8906 133.375C75.2292 133.495 75.5547 133.594 75.8672 133.672L77.4297 134.078C77.9401 134.203 78.4635 134.372 79 134.586C79.5365 134.799 80.0339 135.081 80.4922 135.43C80.9505 135.779 81.3203 136.211 81.6016 136.727C81.888 137.242 82.0313 137.859 82.0313 138.578C82.0313 139.484 81.7969 140.289 81.3281 140.992C80.8646 141.695 80.1901 142.25 79.3047 142.656C78.4245 143.063 77.3594 143.266 76.1094 143.266C74.9115 143.266 73.875 143.076 73 142.695C72.125 142.315 71.4401 141.776 70.9453 141.078C70.4505 140.375 70.1771 139.542 70.125 138.578H72.5469C72.5938 139.156 72.7813 139.638 73.1094 140.023C73.4427 140.404 73.8672 140.687 74.3828 140.875C74.9036 141.057 75.474 141.148 76.0938 141.148C76.776 141.148 77.3828 141.042 77.9141 140.828C78.4505 140.609 78.8724 140.307 79.1797 139.922C79.487 139.531 79.6406 139.076 79.6406 138.555C79.6406 138.081 79.5052 137.693 79.2344 137.391C78.9688 137.089 78.6068 136.839 78.1484 136.641C77.6953 136.443 77.1823 136.268 76.6094 136.117L74.7188 135.602C73.4375 135.253 72.4219 134.74 71.6719 134.062C70.9271 133.385 70.5547 132.49 70.5547 131.375C70.5547 130.453 70.8047 129.648 71.3047 128.961C71.8047 128.273 72.4818 127.74 73.3359 127.359C74.1901 126.974 75.1536 126.781 76.2266 126.781C77.3099 126.781 78.2656 126.971 79.0938 127.352C79.9271 127.732 80.5833 128.255 81.0625 128.922C81.5417 129.583 81.7917 130.344 81.8125 131.203H79.4844ZM84.2051 145.75V144.359L87.916 141.18C88.2546 140.888 88.541 140.625 88.7754 140.391C89.0098 140.156 89.1868 139.927 89.3066 139.703C89.4316 139.474 89.4941 139.229 89.4941 138.969C89.4941 138.531 89.3223 138.187 88.9785 137.937C88.64 137.682 88.2207 137.555 87.7207 137.555C87.1895 137.555 86.7624 137.693 86.4395 137.969C86.1165 138.245 85.9551 138.615 85.9551 139.078H84.1035C84.1035 138.151 84.4447 137.411 85.127 136.859C85.8092 136.307 86.6842 136.031 87.752 136.031C88.4707 136.031 89.0983 136.159 89.6348 136.414C90.1712 136.669 90.5879 137.016 90.8848 137.453C91.1868 137.891 91.3379 138.385 91.3379 138.937C91.3379 139.375 91.2493 139.781 91.0723 140.156C90.8952 140.531 90.6191 140.911 90.2441 141.297C89.8691 141.682 89.3874 142.109 88.7988 142.578L86.9863 144.109V144.18H91.5645V145.75H84.2051ZM100.582 135.32V133.266H110.59V135.32H100.582ZM100.582 140.133V138.078H110.59V140.133H100.582ZM119.502 135.047V133.875C120.382 133.875 120.997 133.695 121.346 133.336C121.695 132.971 121.869 132.37 121.869 131.531V129.289C121.869 128.492 121.958 127.823 122.135 127.281C122.317 126.734 122.593 126.297 122.963 125.969C123.333 125.641 123.801 125.404 124.369 125.258C124.937 125.112 125.606 125.039 126.377 125.039V126.891C125.773 126.891 125.301 126.979 124.963 127.156C124.624 127.333 124.387 127.609 124.252 127.984C124.122 128.354 124.057 128.828 124.057 129.406V132.25C124.057 132.651 123.997 133.023 123.877 133.367C123.757 133.706 123.536 134 123.213 134.25C122.89 134.5 122.429 134.695 121.83 134.836C121.231 134.977 120.455 135.047 119.502 135.047ZM126.377 144.969C125.606 144.969 124.937 144.896 124.369 144.75C123.801 144.604 123.333 144.367 122.963 144.039C122.593 143.711 122.317 143.276 122.135 142.734C121.958 142.187 121.869 141.516 121.869 140.719V138.469C121.869 137.635 121.695 137.036 121.346 136.672C120.997 136.307 120.382 136.125 119.502 136.125V134.961C120.455 134.961 121.231 135.031 121.83 135.172C122.429 135.307 122.89 135.503 123.213 135.758C123.536 136.008 123.757 136.305 123.877 136.648C123.997 136.987 124.057 137.357 124.057 137.758V140.602C124.057 141.174 124.122 141.648 124.252 142.023C124.387 142.393 124.624 142.669 124.963 142.852C125.301 143.029 125.773 143.117 126.377 143.117V144.969ZM119.502 136.125V133.875H121.666V136.125H119.502ZM134.16 143.219C133.087 143.219 132.129 143.034 131.285 142.664C130.447 142.294 129.783 141.781 129.293 141.125C128.809 140.464 128.548 139.698 128.512 138.828H130.965C130.996 139.302 131.155 139.714 131.441 140.062C131.733 140.406 132.113 140.672 132.582 140.859C133.051 141.047 133.572 141.141 134.145 141.141C134.775 141.141 135.332 141.031 135.816 140.812C136.306 140.594 136.689 140.289 136.965 139.898C137.241 139.503 137.379 139.047 137.379 138.531C137.379 137.995 137.241 137.523 136.965 137.117C136.694 136.706 136.296 136.383 135.77 136.148C135.249 135.914 134.618 135.797 133.879 135.797H132.527V133.828H133.879C134.473 133.828 134.993 133.721 135.441 133.508C135.895 133.294 136.249 132.997 136.504 132.617C136.759 132.232 136.887 131.781 136.887 131.266C136.887 130.771 136.775 130.341 136.551 129.977C136.332 129.607 136.02 129.318 135.613 129.109C135.212 128.901 134.738 128.797 134.191 128.797C133.671 128.797 133.184 128.893 132.73 129.086C132.283 129.273 131.918 129.544 131.637 129.898C131.355 130.247 131.204 130.667 131.184 131.156H128.848C128.874 130.292 129.129 129.531 129.613 128.875C130.103 128.219 130.749 127.706 131.551 127.336C132.353 126.966 133.243 126.781 134.223 126.781C135.249 126.781 136.134 126.982 136.879 127.383C137.629 127.779 138.207 128.307 138.613 128.969C139.025 129.63 139.228 130.354 139.223 131.141C139.228 132.036 138.978 132.797 138.473 133.422C137.973 134.047 137.306 134.466 136.473 134.68V134.805C137.535 134.966 138.358 135.388 138.941 136.07C139.53 136.753 139.822 137.599 139.816 138.609C139.822 139.49 139.577 140.279 139.082 140.977C138.592 141.674 137.923 142.224 137.074 142.625C136.225 143.021 135.254 143.219 134.16 143.219ZM145.367 140.812L145.25 141.664C145.172 142.289 145.039 142.94 144.852 143.617C144.669 144.299 144.479 144.932 144.281 145.516C144.089 146.099 143.93 146.563 143.805 146.906H142.148C142.216 146.583 142.31 146.146 142.43 145.594C142.549 145.047 142.667 144.435 142.781 143.758C142.896 143.081 142.982 142.391 143.039 141.687L143.117 140.812H145.367ZM153.863 139.875V137.922L160.777 127H162.316V129.875H161.34L156.395 137.703V137.828H165.871V139.875H153.863ZM161.449 143V139.281L161.465 138.391V127H163.754V143H161.449ZM171.063 140.812L170.945 141.664C170.867 142.289 170.734 142.94 170.547 143.617C170.365 144.299 170.174 144.932 169.977 145.516C169.784 146.099 169.625 146.563 169.5 146.906H167.844C167.911 146.583 168.005 146.146 168.125 145.594C168.245 145.047 168.362 144.435 168.477 143.758C168.591 143.081 168.677 142.391 168.734 141.687L168.813 140.812H171.063ZM185.176 143.219C184.197 143.219 183.316 143.031 182.535 142.656C181.759 142.276 181.139 141.755 180.676 141.094C180.212 140.432 179.965 139.677 179.934 138.828H182.277C182.335 139.516 182.639 140.081 183.191 140.523C183.743 140.966 184.405 141.187 185.176 141.187C185.79 141.187 186.335 141.047 186.809 140.766C187.288 140.479 187.663 140.086 187.934 139.586C188.21 139.086 188.348 138.516 188.348 137.875C188.348 137.224 188.207 136.643 187.926 136.133C187.645 135.622 187.257 135.221 186.762 134.93C186.272 134.638 185.71 134.49 185.074 134.484C184.59 134.484 184.103 134.568 183.613 134.734C183.124 134.901 182.728 135.12 182.426 135.391L180.215 135.062L181.113 127H189.91V129.07H183.121L182.613 133.547H182.707C183.02 133.245 183.434 132.992 183.949 132.789C184.47 132.586 185.027 132.484 185.621 132.484C186.595 132.484 187.462 132.716 188.223 133.18C188.988 133.643 189.59 134.276 190.027 135.078C190.47 135.875 190.689 136.792 190.684 137.828C190.689 138.865 190.454 139.789 189.98 140.602C189.512 141.414 188.861 142.055 188.027 142.523C187.199 142.987 186.249 143.219 185.176 143.219ZM196.027 140.812L195.91 141.664C195.832 142.289 195.699 142.94 195.512 143.617C195.329 144.299 195.139 144.932 194.941 145.516C194.749 146.099 194.59 146.563 194.465 146.906H192.809C192.876 146.583 192.97 146.146 193.09 145.594C193.21 145.047 193.327 144.435 193.441 143.758C193.556 143.081 193.642 142.391 193.699 141.687L193.777 140.812H196.027ZM205.398 143L212.383 129.187V129.07H204.305V127H214.883V129.141L207.922 143H205.398ZM223.607 134.961V136.125C222.727 136.125 222.113 136.307 221.764 136.672C221.415 137.036 221.24 137.635 221.24 138.469V140.719C221.24 141.516 221.149 142.187 220.967 142.734C220.79 143.276 220.516 143.711 220.146 144.039C219.777 144.367 219.308 144.604 218.74 144.75C218.173 144.896 217.503 144.969 216.732 144.969V143.117C217.337 143.117 217.808 143.029 218.146 142.852C218.485 142.669 218.719 142.393 218.85 142.023C218.985 141.648 219.053 141.174 219.053 140.602V137.758C219.053 137.357 219.113 136.987 219.232 136.648C219.352 136.305 219.574 136.008 219.896 135.758C220.219 135.503 220.68 135.307 221.279 135.172C221.878 135.031 222.654 134.961 223.607 134.961ZM216.732 125.039C217.503 125.039 218.173 125.112 218.74 125.258C219.308 125.404 219.777 125.641 220.146 125.969C220.516 126.297 220.79 126.734 220.967 127.281C221.149 127.823 221.24 128.492 221.24 129.289V131.531C221.24 132.37 221.415 132.971 221.764 133.336C222.113 133.695 222.727 133.875 223.607 133.875V135.047C222.654 135.047 221.878 134.977 221.279 134.836C220.68 134.695 220.219 134.5 219.896 134.25C219.574 134 219.352 133.706 219.232 133.367C219.113 133.023 219.053 132.651 219.053 132.25V129.406C219.053 128.828 218.985 128.354 218.85 127.984C218.719 127.609 218.485 127.333 218.146 127.156C217.808 126.979 217.337 126.891 216.732 126.891V125.039ZM223.607 133.875V136.125H221.443V133.875H223.607ZM79.4844 158.203C79.401 157.464 79.0573 156.891 78.4531 156.484C77.849 156.073 77.0885 155.867 76.1719 155.867C75.5156 155.867 74.9479 155.971 74.4688 156.18C73.9896 156.383 73.6172 156.664 73.3516 157.023C73.0911 157.378 72.9609 157.781 72.9609 158.234C72.9609 158.615 73.0495 158.943 73.2266 159.219C73.4089 159.495 73.6458 159.727 73.9375 159.914C74.2344 160.096 74.5521 160.25 74.8906 160.375C75.2292 160.495 75.5547 160.594 75.8672 160.672L77.4297 161.078C77.9401 161.203 78.4635 161.372 79 161.586C79.5365 161.799 80.0339 162.081 80.4922 162.43C80.9505 162.779 81.3203 163.211 81.6016 163.727C81.888 164.242 82.0313 164.859 82.0313 165.578C82.0313 166.484 81.7969 167.289 81.3281 167.992C80.8646 168.695 80.1901 169.25 79.3047 169.656C78.4245 170.063 77.3594 170.266 76.1094 170.266C74.9115 170.266 73.875 170.076 73 169.695C72.125 169.315 71.4401 168.776 70.9453 168.078C70.4505 167.375 70.1771 166.542 70.125 165.578H72.5469C72.5938 166.156 72.7813 166.638 73.1094 167.023C73.4427 167.404 73.8672 167.687 74.3828 167.875C74.9036 168.057 75.474 168.148 76.0938 168.148C76.776 168.148 77.3828 168.042 77.9141 167.828C78.4505 167.609 78.8724 167.307 79.1797 166.922C79.487 166.531 79.6406 166.076 79.6406 165.555C79.6406 165.081 79.5052 164.693 79.2344 164.391C78.9688 164.089 78.6068 163.839 78.1484 163.641C77.6953 163.443 77.1823 163.268 76.6094 163.117L74.7188 162.602C73.4375 162.253 72.4219 161.74 71.6719 161.062C70.9271 160.385 70.5547 159.49 70.5547 158.375C70.5547 157.453 70.8047 156.648 71.3047 155.961C71.8047 155.273 72.4818 154.74 73.3359 154.359C74.1901 153.974 75.1536 153.781 76.2266 153.781C77.3099 153.781 78.2656 153.971 79.0938 154.352C79.9271 154.732 80.5833 155.255 81.0625 155.922C81.5417 156.583 81.7917 157.344 81.8125 158.203H79.4844ZM87.916 172.875C87.1712 172.875 86.5072 172.753 85.9238 172.508C85.3457 172.268 84.8874 171.935 84.5488 171.508C84.2103 171.086 84.0332 170.594 84.0176 170.031H85.9863C86.002 170.411 86.1921 170.714 86.5566 170.938C86.9264 171.161 87.3796 171.273 87.916 171.273C88.4785 171.273 88.9447 171.148 89.3145 170.898C89.6842 170.654 89.8691 170.328 89.8691 169.922C89.8691 169.526 89.6738 169.201 89.2832 168.945C88.8978 168.69 88.3717 168.562 87.7051 168.562H86.8223V167.141H87.7051C88.252 167.141 88.7051 167.021 89.0645 166.781C89.4238 166.542 89.6035 166.224 89.6035 165.828C89.6035 165.458 89.4499 165.154 89.1426 164.914C88.8405 164.674 88.4421 164.555 87.9473 164.555C87.4421 164.555 87.0098 164.672 86.6504 164.906C86.291 165.141 86.1035 165.451 86.0879 165.836H84.2363C84.2467 165.279 84.416 164.792 84.7441 164.375C85.0775 163.953 85.5228 163.625 86.0801 163.391C86.6374 163.151 87.2624 163.031 87.9551 163.031C88.653 163.031 89.265 163.148 89.791 163.383C90.3223 163.617 90.7363 163.937 91.0332 164.344C91.3353 164.75 91.4863 165.208 91.4863 165.719C91.4863 166.281 91.291 166.74 90.9004 167.094C90.515 167.443 90.0436 167.661 89.4863 167.75V167.82C90.252 167.914 90.8405 168.164 91.252 168.57C91.6634 168.977 91.8691 169.474 91.8691 170.063C91.8691 170.604 91.6999 171.086 91.3613 171.508C91.0228 171.935 90.554 172.268 89.9551 172.508C89.3613 172.753 88.6816 172.875 87.916 172.875ZM100.861 162.32V160.266H110.869V162.32H100.861ZM100.861 167.133V165.078H110.869V167.133H100.861ZM119.781 162.047V160.875C120.661 160.875 121.276 160.695 121.625 160.336C121.974 159.971 122.148 159.37 122.148 158.531V156.289C122.148 155.492 122.237 154.823 122.414 154.281C122.596 153.734 122.872 153.297 123.242 152.969C123.612 152.641 124.081 152.404 124.648 152.258C125.216 152.112 125.885 152.039 126.656 152.039V153.891C126.052 153.891 125.581 153.979 125.242 154.156C124.904 154.333 124.667 154.609 124.531 154.984C124.401 155.354 124.336 155.828 124.336 156.406V159.25C124.336 159.651 124.276 160.023 124.156 160.367C124.036 160.706 123.815 161 123.492 161.25C123.169 161.5 122.708 161.695 122.109 161.836C121.51 161.977 120.734 162.047 119.781 162.047ZM126.656 171.969C125.885 171.969 125.216 171.896 124.648 171.75C124.081 171.604 123.612 171.367 123.242 171.039C122.872 170.711 122.596 170.276 122.414 169.734C122.237 169.187 122.148 168.516 122.148 167.719V165.469C122.148 164.635 121.974 164.036 121.625 163.672C121.276 163.307 120.661 163.125 119.781 163.125V161.961C120.734 161.961 121.51 162.031 122.109 162.172C122.708 162.307 123.169 162.503 123.492 162.758C123.815 163.008 124.036 163.305 124.156 163.648C124.276 163.987 124.336 164.357 124.336 164.758V167.602C124.336 168.174 124.401 168.648 124.531 169.023C124.667 169.393 124.904 169.669 125.242 169.852C125.581 170.029 126.052 170.117 126.656 170.117V171.969ZM119.781 163.125V160.875H121.945V163.125H119.781ZM134.939 154V170H132.518V156.422H132.424L128.596 158.922V156.609L132.588 154H134.939ZM141.414 167.812L141.297 168.664C141.219 169.289 141.086 169.94 140.898 170.617C140.716 171.299 140.526 171.932 140.328 172.516C140.135 173.099 139.977 173.563 139.852 173.906H138.195C138.263 173.583 138.357 173.146 138.477 172.594C138.596 172.047 138.714 171.435 138.828 170.758C138.943 170.081 139.029 169.391 139.086 168.687L139.164 167.812H141.414ZM149.91 166.875V164.922L156.824 154H158.363V156.875H157.387L152.441 164.703V164.828H161.918V166.875H149.91ZM157.496 170V166.281L157.512 165.391V154H159.801V170H157.496ZM167.109 167.812L166.992 168.664C166.914 169.289 166.781 169.94 166.594 170.617C166.411 171.299 166.221 171.932 166.023 172.516C165.831 173.099 165.672 173.563 165.547 173.906H163.891C163.958 173.583 164.052 173.146 164.172 172.594C164.292 172.047 164.409 171.435 164.523 170.758C164.638 170.081 164.724 169.391 164.781 168.687L164.859 167.812H167.109ZM176.48 170L183.465 156.187V156.07H175.387V154H185.965V156.141L179.004 170H176.48ZM194.689 161.961V163.125C193.809 163.125 193.195 163.307 192.846 163.672C192.497 164.036 192.322 164.635 192.322 165.469V167.719C192.322 168.516 192.231 169.187 192.049 169.734C191.872 170.276 191.598 170.711 191.229 171.039C190.859 171.367 190.39 171.604 189.822 171.75C189.255 171.896 188.585 171.969 187.814 171.969V170.117C188.419 170.117 188.89 170.029 189.229 169.852C189.567 169.669 189.801 169.393 189.932 169.023C190.067 168.648 190.135 168.174 190.135 167.602V164.758C190.135 164.357 190.195 163.987 190.314 163.648C190.434 163.305 190.656 163.008 190.979 162.758C191.301 162.503 191.762 162.307 192.361 162.172C192.96 162.031 193.736 161.961 194.689 161.961ZM187.814 152.039C188.585 152.039 189.255 152.112 189.822 152.258C190.39 152.404 190.859 152.641 191.229 152.969C191.598 153.297 191.872 153.734 192.049 154.281C192.231 154.823 192.322 155.492 192.322 156.289V158.531C192.322 159.37 192.497 159.971 192.846 160.336C193.195 160.695 193.809 160.875 194.689 160.875V162.047C193.736 162.047 192.96 161.977 192.361 161.836C191.762 161.695 191.301 161.5 190.979 161.25C190.656 161 190.434 160.706 190.314 160.367C190.195 160.023 190.135 159.651 190.135 159.25V156.406C190.135 155.828 190.067 155.354 189.932 154.984C189.801 154.609 189.567 154.333 189.229 154.156C188.89 153.979 188.419 153.891 187.814 153.891V152.039ZM194.689 160.875V163.125H192.525V160.875H194.689ZM79.4844 185.203C79.401 184.464 79.0573 183.891 78.4531 183.484C77.849 183.073 77.0885 182.867 76.1719 182.867C75.5156 182.867 74.9479 182.971 74.4688 183.18C73.9896 183.383 73.6172 183.664 73.3516 184.023C73.0911 184.378 72.9609 184.781 72.9609 185.234C72.9609 185.615 73.0495 185.943 73.2266 186.219C73.4089 186.495 73.6458 186.727 73.9375 186.914C74.2344 187.096 74.5521 187.25 74.8906 187.375C75.2292 187.495 75.5547 187.594 75.8672 187.672L77.4297 188.078C77.9401 188.203 78.4635 188.372 79 188.586C79.5365 188.799 80.0339 189.081 80.4922 189.43C80.9505 189.779 81.3203 190.211 81.6016 190.727C81.888 191.242 82.0313 191.859 82.0313 192.578C82.0313 193.484 81.7969 194.289 81.3281 194.992C80.8646 195.695 80.1901 196.25 79.3047 196.656C78.4245 197.063 77.3594 197.266 76.1094 197.266C74.9115 197.266 73.875 197.076 73 196.695C72.125 196.315 71.4401 195.776 70.9453 195.078C70.4505 194.375 70.1771 193.542 70.125 192.578H72.5469C72.5938 193.156 72.7813 193.638 73.1094 194.023C73.4427 194.404 73.8672 194.687 74.3828 194.875C74.9036 195.057 75.474 195.148 76.0938 195.148C76.776 195.148 77.3828 195.042 77.9141 194.828C78.4505 194.609 78.8724 194.307 79.1797 193.922C79.487 193.531 79.6406 193.076 79.6406 192.555C79.6406 192.081 79.5052 191.693 79.2344 191.391C78.9688 191.089 78.6068 190.839 78.1484 190.641C77.6953 190.443 77.1823 190.268 76.6094 190.117L74.7188 189.602C73.4375 189.253 72.4219 188.74 71.6719 188.062C70.9271 187.385 70.5547 186.49 70.5547 185.375C70.5547 184.453 70.8047 183.648 71.3047 182.961C71.8047 182.273 72.4818 181.74 73.3359 181.359C74.1901 180.974 75.1536 180.781 76.2266 180.781C77.3099 180.781 78.2656 180.971 79.0938 181.352C79.9271 181.732 80.5833 182.255 81.0625 182.922C81.5417 183.583 81.7917 184.344 81.8125 185.203H79.4844ZM83.9238 198.016V196.516L88.4316 190.156H89.7441V192.266H88.9473L85.8926 196.414V196.484H92.1816V198.016H83.9238ZM89.0098 199.75V197.555L89.0176 196.898V190.156H90.8613V199.75H89.0098ZM101.055 189.32V187.266H111.062V189.32H101.055ZM101.055 194.133V192.078H111.062V194.133H101.055ZM119.975 189.047V187.875C120.855 187.875 121.469 187.695 121.818 187.336C122.167 186.971 122.342 186.37 122.342 185.531V183.289C122.342 182.492 122.43 181.823 122.607 181.281C122.79 180.734 123.066 180.297 123.436 179.969C123.805 179.641 124.274 179.404 124.842 179.258C125.41 179.112 126.079 179.039 126.85 179.039V180.891C126.245 180.891 125.774 180.979 125.436 181.156C125.097 181.333 124.86 181.609 124.725 181.984C124.594 182.354 124.529 182.828 124.529 183.406V186.25C124.529 186.651 124.469 187.023 124.35 187.367C124.23 187.706 124.008 188 123.686 188.25C123.363 188.5 122.902 188.695 122.303 188.836C121.704 188.977 120.928 189.047 119.975 189.047ZM126.85 198.969C126.079 198.969 125.41 198.896 124.842 198.75C124.274 198.604 123.805 198.367 123.436 198.039C123.066 197.711 122.79 197.276 122.607 196.734C122.43 196.187 122.342 195.516 122.342 194.719V192.469C122.342 191.635 122.167 191.036 121.818 190.672C121.469 190.307 120.855 190.125 119.975 190.125V188.961C120.928 188.961 121.704 189.031 122.303 189.172C122.902 189.307 123.363 189.503 123.686 189.758C124.008 190.008 124.23 190.305 124.35 190.648C124.469 190.987 124.529 191.357 124.529 191.758V194.602C124.529 195.174 124.594 195.648 124.725 196.023C124.86 196.393 125.097 196.669 125.436 196.852C125.774 197.029 126.245 197.117 126.85 197.117V198.969ZM119.975 190.125V187.875H122.139V190.125H119.975ZM135.133 181V197H132.711V183.422H132.617L128.789 185.922V183.609L132.781 181H135.133ZM141.607 194.812L141.49 195.664C141.412 196.289 141.279 196.94 141.092 197.617C140.91 198.299 140.719 198.932 140.521 199.516C140.329 200.099 140.17 200.563 140.045 200.906H138.389C138.456 200.583 138.55 200.146 138.67 199.594C138.79 199.047 138.907 198.435 139.021 197.758C139.136 197.081 139.222 196.391 139.279 195.687L139.357 194.812H141.607ZM150.439 197V195.25L155.854 189.641C156.432 189.031 156.908 188.497 157.283 188.039C157.663 187.576 157.947 187.135 158.135 186.719C158.322 186.302 158.416 185.859 158.416 185.391C158.416 184.859 158.291 184.401 158.041 184.016C157.791 183.625 157.45 183.326 157.018 183.117C156.585 182.904 156.098 182.797 155.557 182.797C154.984 182.797 154.484 182.914 154.057 183.148C153.63 183.383 153.301 183.714 153.072 184.141C152.843 184.568 152.729 185.068 152.729 185.641H150.424C150.424 184.667 150.648 183.815 151.096 183.086C151.544 182.357 152.158 181.792 152.939 181.391C153.721 180.984 154.609 180.781 155.604 180.781C156.609 180.781 157.494 180.982 158.26 181.383C159.031 181.779 159.632 182.32 160.064 183.008C160.497 183.69 160.713 184.461 160.713 185.32C160.713 185.914 160.601 186.495 160.377 187.062C160.158 187.63 159.775 188.263 159.229 188.961C158.682 189.654 157.921 190.495 156.947 191.484L153.768 194.812V194.93H160.971V197H150.439ZM167.002 194.812L166.885 195.664C166.807 196.289 166.674 196.94 166.486 197.617C166.304 198.299 166.114 198.932 165.916 199.516C165.723 200.099 165.564 200.563 165.439 200.906H163.783C163.851 200.583 163.945 200.146 164.064 199.594C164.184 199.047 164.301 198.435 164.416 197.758C164.531 197.081 164.617 196.391 164.674 195.687L164.752 194.812H167.002ZM181.42 197.219C180.706 197.208 180.003 197.078 179.311 196.828C178.623 196.578 177.998 196.161 177.436 195.578C176.873 194.995 176.423 194.211 176.084 193.227C175.751 192.242 175.584 191.013 175.584 189.539C175.584 188.143 175.722 186.904 175.998 185.82C176.279 184.737 176.683 183.823 177.209 183.078C177.735 182.328 178.37 181.758 179.115 181.367C179.86 180.977 180.696 180.781 181.623 180.781C182.576 180.781 183.423 180.969 184.162 181.344C184.902 181.719 185.501 182.237 185.959 182.898C186.423 183.56 186.717 184.312 186.842 185.156H184.459C184.298 184.49 183.977 183.945 183.498 183.523C183.019 183.102 182.394 182.891 181.623 182.891C180.451 182.891 179.537 183.401 178.881 184.422C178.23 185.443 177.902 186.862 177.896 188.68H178.014C178.29 188.227 178.628 187.841 179.029 187.523C179.436 187.201 179.889 186.953 180.389 186.781C180.894 186.604 181.425 186.516 181.982 186.516C182.91 186.516 183.748 186.742 184.498 187.195C185.253 187.643 185.855 188.263 186.303 189.055C186.751 189.846 186.975 190.753 186.975 191.773C186.975 192.794 186.743 193.719 186.279 194.547C185.821 195.375 185.175 196.031 184.342 196.516C183.508 196.995 182.535 197.229 181.42 197.219ZM181.412 195.187C182.027 195.187 182.576 195.036 183.061 194.734C183.545 194.432 183.928 194.026 184.209 193.516C184.49 193.005 184.631 192.435 184.631 191.805C184.631 191.19 184.493 190.63 184.217 190.125C183.946 189.62 183.571 189.219 183.092 188.922C182.618 188.625 182.076 188.477 181.467 188.477C181.003 188.477 180.574 188.565 180.178 188.742C179.787 188.919 179.443 189.164 179.146 189.477C178.85 189.789 178.615 190.148 178.443 190.555C178.277 190.956 178.193 191.38 178.193 191.828C178.193 192.427 178.331 192.982 178.607 193.492C178.889 194.003 179.271 194.414 179.756 194.727C180.245 195.034 180.798 195.187 181.412 195.187ZM195.828 188.961V190.125C194.948 190.125 194.333 190.307 193.984 190.672C193.635 191.036 193.461 191.635 193.461 192.469V194.719C193.461 195.516 193.37 196.187 193.188 196.734C193.01 197.276 192.737 197.711 192.367 198.039C191.997 198.367 191.529 198.604 190.961 198.75C190.393 198.896 189.724 198.969 188.953 198.969V197.117C189.557 197.117 190.029 197.029 190.367 196.852C190.706 196.669 190.94 196.393 191.07 196.023C191.206 195.648 191.273 195.174 191.273 194.602V191.758C191.273 191.357 191.333 190.987 191.453 190.648C191.573 190.305 191.794 190.008 192.117 189.758C192.44 189.503 192.901 189.307 193.5 189.172C194.099 189.031 194.875 188.961 195.828 188.961ZM188.953 179.039C189.724 179.039 190.393 179.112 190.961 179.258C191.529 179.404 191.997 179.641 192.367 179.969C192.737 180.297 193.01 180.734 193.188 181.281C193.37 181.823 193.461 182.492 193.461 183.289V185.531C193.461 186.37 193.635 186.971 193.984 187.336C194.333 187.695 194.948 187.875 195.828 187.875V189.047C194.875 189.047 194.099 188.977 193.5 188.836C192.901 188.695 192.44 188.5 192.117 188.25C191.794 188 191.573 187.706 191.453 187.367C191.333 187.023 191.273 186.651 191.273 186.25V183.406C191.273 182.828 191.206 182.354 191.07 181.984C190.94 181.609 190.706 181.333 190.367 181.156C190.029 180.979 189.557 180.891 188.953 180.891V179.039ZM195.828 187.875V190.125H193.664V187.875H195.828ZM79.4844 212.203C79.401 211.464 79.0573 210.891 78.4531 210.484C77.849 210.073 77.0885 209.867 76.1719 209.867C75.5156 209.867 74.9479 209.971 74.4688 210.18C73.9896 210.383 73.6172 210.664 73.3516 211.023C73.0911 211.378 72.9609 211.781 72.9609 212.234C72.9609 212.615 73.0495 212.943 73.2266 213.219C73.4089 213.495 73.6458 213.727 73.9375 213.914C74.2344 214.096 74.5521 214.25 74.8906 214.375C75.2292 214.495 75.5547 214.594 75.8672 214.672L77.4297 215.078C77.9401 215.203 78.4635 215.372 79 215.586C79.5365 215.799 80.0339 216.081 80.4922 216.43C80.9505 216.779 81.3203 217.211 81.6016 217.727C81.888 218.242 82.0313 218.859 82.0313 219.578C82.0313 220.484 81.7969 221.289 81.3281 221.992C80.8646 222.695 80.1901 223.25 79.3047 223.656C78.4245 224.063 77.3594 224.266 76.1094 224.266C74.9115 224.266 73.875 224.076 73 223.695C72.125 223.315 71.4401 222.776 70.9453 222.078C70.4505 221.375 70.1771 220.542 70.125 219.578H72.5469C72.5938 220.156 72.7813 220.638 73.1094 221.023C73.4427 221.404 73.8672 221.687 74.3828 221.875C74.9036 222.057 75.474 222.148 76.0938 222.148C76.776 222.148 77.3828 222.042 77.9141 221.828C78.4505 221.609 78.8724 221.307 79.1797 220.922C79.487 220.531 79.6406 220.076 79.6406 219.555C79.6406 219.081 79.5052 218.693 79.2344 218.391C78.9688 218.089 78.6068 217.839 78.1484 217.641C77.6953 217.443 77.1823 217.268 76.6094 217.117L74.7188 216.602C73.4375 216.253 72.4219 215.74 71.6719 215.062C70.9271 214.385 70.5547 213.49 70.5547 212.375C70.5547 211.453 70.8047 210.648 71.3047 209.961C71.8047 209.273 72.4818 208.74 73.3359 208.359C74.1901 207.974 75.1536 207.781 76.2266 207.781C77.3099 207.781 78.2656 207.971 79.0938 208.352C79.9271 208.732 80.5833 209.255 81.0625 209.922C81.5417 210.583 81.7917 211.344 81.8125 212.203H79.4844ZM87.8301 226.875C87.127 226.875 86.4993 226.753 85.9473 226.508C85.3952 226.268 84.9577 225.935 84.6348 225.508C84.3118 225.081 84.1452 224.589 84.1348 224.031H86.0176C86.0436 224.417 86.2233 224.737 86.5566 224.992C86.89 225.247 87.3145 225.375 87.8301 225.375C88.3978 225.375 88.8665 225.208 89.2363 224.875C89.6061 224.547 89.791 224.125 89.791 223.609C89.791 223.083 89.5983 222.654 89.2129 222.32C88.8327 221.987 88.3587 221.82 87.791 221.82C87.4577 221.82 87.14 221.883 86.8379 222.008C86.5358 222.133 86.2962 222.299 86.1191 222.508L84.3457 222.195L84.8926 217.156H91.1113V218.727H86.4941L86.1816 221.258H86.252C86.4447 221.013 86.7233 220.812 87.0879 220.656C87.4577 220.5 87.8665 220.422 88.3145 220.422C88.9499 220.422 89.5176 220.557 90.0176 220.828C90.5228 221.094 90.9186 221.464 91.2051 221.938C91.4967 222.406 91.6426 222.948 91.6426 223.563C91.6426 224.208 91.4811 224.779 91.1582 225.273C90.8353 225.773 90.3848 226.164 89.8066 226.445C89.2337 226.732 88.5749 226.875 87.8301 226.875ZM100.561 216.32V214.266H110.568V216.32H100.561ZM100.561 221.133V219.078H110.568V221.133H100.561ZM119.48 216.047V214.875C120.361 214.875 120.975 214.695 121.324 214.336C121.673 213.971 121.848 213.37 121.848 212.531V210.289C121.848 209.492 121.936 208.823 122.113 208.281C122.296 207.734 122.572 207.297 122.941 206.969C123.311 206.641 123.78 206.404 124.348 206.258C124.915 206.112 125.585 206.039 126.355 206.039V207.891C125.751 207.891 125.28 207.979 124.941 208.156C124.603 208.333 124.366 208.609 124.23 208.984C124.1 209.354 124.035 209.828 124.035 210.406V213.25C124.035 213.651 123.975 214.023 123.855 214.367C123.736 214.706 123.514 215 123.191 215.25C122.868 215.5 122.408 215.695 121.809 215.836C121.21 215.977 120.434 216.047 119.48 216.047ZM126.355 225.969C125.585 225.969 124.915 225.896 124.348 225.75C123.78 225.604 123.311 225.367 122.941 225.039C122.572 224.711 122.296 224.276 122.113 223.734C121.936 223.187 121.848 222.516 121.848 221.719V219.469C121.848 218.635 121.673 218.036 121.324 217.672C120.975 217.307 120.361 217.125 119.48 217.125V215.961C120.434 215.961 121.21 216.031 121.809 216.172C122.408 216.307 122.868 216.503 123.191 216.758C123.514 217.008 123.736 217.305 123.855 217.648C123.975 217.987 124.035 218.357 124.035 218.758V221.602C124.035 222.174 124.1 222.648 124.23 223.023C124.366 223.393 124.603 223.669 124.941 223.852C125.28 224.029 125.751 224.117 126.355 224.117V225.969ZM119.48 217.125V214.875H121.645V217.125H119.48ZM134.139 224.219C133.066 224.219 132.107 224.034 131.264 223.664C130.425 223.294 129.761 222.781 129.271 222.125C128.787 221.464 128.527 220.698 128.49 219.828H130.943C130.975 220.302 131.133 220.714 131.42 221.062C131.712 221.406 132.092 221.672 132.561 221.859C133.029 222.047 133.55 222.141 134.123 222.141C134.753 222.141 135.311 222.031 135.795 221.812C136.285 221.594 136.667 221.289 136.943 220.898C137.219 220.503 137.357 220.047 137.357 219.531C137.357 218.995 137.219 218.523 136.943 218.117C136.673 217.706 136.274 217.383 135.748 217.148C135.227 216.914 134.597 216.797 133.857 216.797H132.506V214.828H133.857C134.451 214.828 134.972 214.721 135.42 214.508C135.873 214.294 136.227 213.997 136.482 213.617C136.738 213.232 136.865 212.781 136.865 212.266C136.865 211.771 136.753 211.341 136.529 210.977C136.311 210.607 135.998 210.318 135.592 210.109C135.191 209.901 134.717 209.797 134.17 209.797C133.649 209.797 133.162 209.893 132.709 210.086C132.261 210.273 131.896 210.544 131.615 210.898C131.334 211.247 131.183 211.667 131.162 212.156H128.826C128.852 211.292 129.107 210.531 129.592 209.875C130.081 209.219 130.727 208.706 131.529 208.336C132.331 207.966 133.222 207.781 134.201 207.781C135.227 207.781 136.113 207.982 136.857 208.383C137.607 208.779 138.186 209.307 138.592 209.969C139.003 210.63 139.206 211.354 139.201 212.141C139.206 213.036 138.956 213.797 138.451 214.422C137.951 215.047 137.285 215.466 136.451 215.68V215.805C137.514 215.966 138.337 216.388 138.92 217.07C139.508 217.753 139.8 218.599 139.795 219.609C139.8 220.49 139.555 221.279 139.061 221.977C138.571 222.674 137.902 223.224 137.053 223.625C136.204 224.021 135.232 224.219 134.139 224.219ZM145.346 221.812L145.229 222.664C145.15 223.289 145.018 223.94 144.83 224.617C144.648 225.299 144.458 225.932 144.26 226.516C144.067 227.099 143.908 227.563 143.783 227.906H142.127C142.195 227.583 142.288 227.146 142.408 226.594C142.528 226.047 142.645 225.435 142.76 224.758C142.874 224.081 142.96 223.391 143.018 222.687L143.096 221.812H145.346ZM159.459 224.219C158.48 224.219 157.6 224.031 156.818 223.656C156.042 223.276 155.423 222.755 154.959 222.094C154.495 221.432 154.248 220.677 154.217 219.828H156.561C156.618 220.516 156.923 221.081 157.475 221.523C158.027 221.966 158.688 222.187 159.459 222.187C160.074 222.187 160.618 222.047 161.092 221.766C161.571 221.479 161.946 221.086 162.217 220.586C162.493 220.086 162.631 219.516 162.631 218.875C162.631 218.224 162.49 217.643 162.209 217.133C161.928 216.622 161.54 216.221 161.045 215.93C160.555 215.638 159.993 215.49 159.357 215.484C158.873 215.484 158.386 215.568 157.896 215.734C157.407 215.901 157.011 216.12 156.709 216.391L154.498 216.062L155.396 208H164.193V210.07H157.404L156.896 214.547H156.99C157.303 214.245 157.717 213.992 158.232 213.789C158.753 213.586 159.311 213.484 159.904 213.484C160.878 213.484 161.745 213.716 162.506 214.18C163.271 214.643 163.873 215.276 164.311 216.078C164.753 216.875 164.972 217.792 164.967 218.828C164.972 219.865 164.738 220.789 164.264 221.602C163.795 222.414 163.144 223.055 162.311 223.523C161.482 223.987 160.532 224.219 159.459 224.219ZM170.311 221.812L170.193 222.664C170.115 223.289 169.982 223.94 169.795 224.617C169.613 225.299 169.423 225.932 169.225 226.516C169.032 227.099 168.873 227.563 168.748 227.906H167.092C167.16 227.583 167.253 227.146 167.373 226.594C167.493 226.047 167.61 225.435 167.725 224.758C167.839 224.081 167.925 223.391 167.982 222.687L168.061 221.812H170.311ZM179.682 224L186.666 210.187V210.07H178.588V208H189.166V210.141L182.205 224H179.682ZM197.891 215.961V217.125C197.01 217.125 196.396 217.307 196.047 217.672C195.698 218.036 195.523 218.635 195.523 219.469V221.719C195.523 222.516 195.432 223.187 195.25 223.734C195.073 224.276 194.799 224.711 194.43 225.039C194.06 225.367 193.591 225.604 193.023 225.75C192.456 225.896 191.786 225.969 191.016 225.969V224.117C191.62 224.117 192.091 224.029 192.43 223.852C192.768 223.669 193.003 223.393 193.133 223.023C193.268 222.648 193.336 222.174 193.336 221.602V218.758C193.336 218.357 193.396 217.987 193.516 217.648C193.635 217.305 193.857 217.008 194.18 216.758C194.503 216.503 194.964 216.307 195.563 216.172C196.161 216.031 196.938 215.961 197.891 215.961ZM191.016 206.039C191.786 206.039 192.456 206.112 193.023 206.258C193.591 206.404 194.06 206.641 194.43 206.969C194.799 207.297 195.073 207.734 195.25 208.281C195.432 208.823 195.523 209.492 195.523 210.289V212.531C195.523 213.37 195.698 213.971 196.047 214.336C196.396 214.695 197.01 214.875 197.891 214.875V216.047C196.938 216.047 196.161 215.977 195.563 215.836C194.964 215.695 194.503 215.5 194.18 215.25C193.857 215 193.635 214.706 193.516 214.367C193.396 214.023 193.336 213.651 193.336 213.25V210.406C193.336 209.828 193.268 209.354 193.133 208.984C193.003 208.609 192.768 208.333 192.43 208.156C192.091 207.979 191.62 207.891 191.016 207.891V206.039ZM197.891 214.875V217.125H195.727V214.875H197.891ZM79.4844 239.203C79.401 238.464 79.0573 237.891 78.4531 237.484C77.849 237.073 77.0885 236.867 76.1719 236.867C75.5156 236.867 74.9479 236.971 74.4688 237.18C73.9896 237.383 73.6172 237.664 73.3516 238.023C73.0911 238.378 72.9609 238.781 72.9609 239.234C72.9609 239.615 73.0495 239.943 73.2266 240.219C73.4089 240.495 73.6458 240.727 73.9375 240.914C74.2344 241.096 74.5521 241.25 74.8906 241.375C75.2292 241.495 75.5547 241.594 75.8672 241.672L77.4297 242.078C77.9401 242.203 78.4635 242.372 79 242.586C79.5365 242.799 80.0339 243.081 80.4922 243.43C80.9505 243.779 81.3203 244.211 81.6016 244.727C81.888 245.242 82.0313 245.859 82.0313 246.578C82.0313 247.484 81.7969 248.289 81.3281 248.992C80.8646 249.695 80.1901 250.25 79.3047 250.656C78.4245 251.063 77.3594 251.266 76.1094 251.266C74.9115 251.266 73.875 251.076 73 250.695C72.125 250.315 71.4401 249.776 70.9453 249.078C70.4505 248.375 70.1771 247.542 70.125 246.578H72.5469C72.5938 247.156 72.7813 247.638 73.1094 248.023C73.4427 248.404 73.8672 248.687 74.3828 248.875C74.9036 249.057 75.474 249.148 76.0938 249.148C76.776 249.148 77.3828 249.042 77.9141 248.828C78.4505 248.609 78.8724 248.307 79.1797 247.922C79.487 247.531 79.6406 247.076 79.6406 246.555C79.6406 246.081 79.5052 245.693 79.2344 245.391C78.9688 245.089 78.6068 244.839 78.1484 244.641C77.6953 244.443 77.1823 244.268 76.6094 244.117L74.7188 243.602C73.4375 243.253 72.4219 242.74 71.6719 242.062C70.9271 241.385 70.5547 240.49 70.5547 239.375C70.5547 238.453 70.8047 237.648 71.3047 236.961C71.8047 236.273 72.4818 235.74 73.3359 235.359C74.1901 234.974 75.1536 234.781 76.2266 234.781C77.3099 234.781 78.2656 234.971 79.0938 235.352C79.9271 235.732 80.5833 236.255 81.0625 236.922C81.5417 237.583 81.7917 238.344 81.8125 239.203H79.4844ZM88.0176 253.875C87.4915 253.875 86.9837 253.792 86.4941 253.625C86.0098 253.458 85.5749 253.19 85.1895 252.82C84.804 252.451 84.4993 251.966 84.2754 251.367C84.0514 250.773 83.9395 250.047 83.9395 249.187C83.9395 248.125 84.1061 247.206 84.4395 246.43C84.778 245.654 85.2572 245.055 85.877 244.633C86.502 244.206 87.2467 243.992 88.1113 243.992C89.1478 243.992 89.9837 244.271 90.6191 244.828C91.2598 245.385 91.6243 246.055 91.7129 246.836H89.8223C89.7389 246.461 89.5436 246.172 89.2363 245.969C88.929 245.766 88.554 245.664 88.1113 245.664C87.3665 245.664 86.7988 245.951 86.4082 246.523C86.0228 247.091 85.8301 247.872 85.8301 248.867H85.8926C86.1374 248.43 86.502 248.091 86.9863 247.852C87.4707 247.607 88.002 247.484 88.5801 247.484C89.1947 247.484 89.7467 247.617 90.2363 247.883C90.7259 248.148 91.1139 248.51 91.4004 248.969C91.6868 249.427 91.8301 249.953 91.8301 250.547C91.8301 251.193 91.6686 251.766 91.3457 252.266C91.028 252.771 90.5827 253.164 90.0098 253.445C89.4368 253.732 88.7728 253.875 88.0176 253.875ZM88.0098 252.375C88.3743 252.375 88.7051 252.297 89.002 252.141C89.2988 251.984 89.5332 251.773 89.7051 251.508C89.8822 251.242 89.9707 250.943 89.9707 250.609C89.9707 250.286 89.8848 249.995 89.7129 249.734C89.541 249.469 89.3066 249.26 89.0098 249.109C88.7181 248.953 88.3874 248.875 88.0176 248.875C87.6426 248.875 87.3014 248.953 86.9941 249.109C86.6921 249.26 86.4551 249.474 86.2832 249.75C86.1165 250.021 86.0384 250.336 86.0488 250.695C86.0592 251.122 86.2441 251.508 86.6035 251.852C86.9629 252.201 87.4316 252.375 88.0098 252.375ZM100.775 243.32V241.266H110.783V243.32H100.775ZM100.775 248.133V246.078H110.783V248.133H100.775ZM119.695 243.047V241.875C120.576 241.875 121.19 241.695 121.539 241.336C121.888 240.971 122.063 240.37 122.063 239.531V237.289C122.063 236.492 122.151 235.823 122.328 235.281C122.51 234.734 122.786 234.297 123.156 233.969C123.526 233.641 123.995 233.404 124.563 233.258C125.13 233.112 125.799 233.039 126.57 233.039V234.891C125.966 234.891 125.495 234.979 125.156 235.156C124.818 235.333 124.581 235.609 124.445 235.984C124.315 236.354 124.25 236.828 124.25 237.406V240.25C124.25 240.651 124.19 241.023 124.07 241.367C123.951 241.706 123.729 242 123.406 242.25C123.083 242.5 122.622 242.695 122.023 242.836C121.424 242.977 120.648 243.047 119.695 243.047ZM126.57 252.969C125.799 252.969 125.13 252.896 124.563 252.75C123.995 252.604 123.526 252.367 123.156 252.039C122.786 251.711 122.51 251.276 122.328 250.734C122.151 250.187 122.063 249.516 122.063 248.719V246.469C122.063 245.635 121.888 245.036 121.539 244.672C121.19 244.307 120.576 244.125 119.695 244.125V242.961C120.648 242.961 121.424 243.031 122.023 243.172C122.622 243.307 123.083 243.503 123.406 243.758C123.729 244.008 123.951 244.305 124.07 244.648C124.19 244.987 124.25 245.357 124.25 245.758V248.602C124.25 249.174 124.315 249.648 124.445 250.023C124.581 250.393 124.818 250.669 125.156 250.852C125.495 251.029 125.966 251.117 126.57 251.117V252.969ZM119.695 244.125V241.875H121.859V244.125H119.695ZM128.447 247.875V245.922L135.361 235H136.9V237.875H135.924L130.979 245.703V245.828H140.455V247.875H128.447ZM136.033 251V247.281L136.049 246.391V235H138.338V251H136.033ZM145.646 248.812L145.529 249.664C145.451 250.289 145.318 250.94 145.131 251.617C144.949 252.299 144.758 252.932 144.561 253.516C144.368 254.099 144.209 254.563 144.084 254.906H142.428C142.495 254.583 142.589 254.146 142.709 253.594C142.829 253.047 142.946 252.435 143.061 251.758C143.175 251.081 143.261 250.391 143.318 249.687L143.396 248.812H145.646ZM159.76 251.219C158.781 251.219 157.9 251.031 157.119 250.656C156.343 250.276 155.723 249.755 155.26 249.094C154.796 248.432 154.549 247.677 154.518 246.828H156.861C156.919 247.516 157.223 248.081 157.775 248.523C158.327 248.966 158.989 249.187 159.76 249.187C160.374 249.187 160.919 249.047 161.393 248.766C161.872 248.479 162.247 248.086 162.518 247.586C162.794 247.086 162.932 246.516 162.932 245.875C162.932 245.224 162.791 244.643 162.51 244.133C162.229 243.622 161.84 243.221 161.346 242.93C160.856 242.638 160.294 242.49 159.658 242.484C159.174 242.484 158.687 242.568 158.197 242.734C157.708 242.901 157.312 243.12 157.01 243.391L154.799 243.062L155.697 235H164.494V237.07H157.705L157.197 241.547H157.291C157.604 241.245 158.018 240.992 158.533 240.789C159.054 240.586 159.611 240.484 160.205 240.484C161.179 240.484 162.046 240.716 162.807 241.18C163.572 241.643 164.174 242.276 164.611 243.078C165.054 243.875 165.273 244.792 165.268 245.828C165.273 246.865 165.038 247.789 164.564 248.602C164.096 249.414 163.445 250.055 162.611 250.523C161.783 250.987 160.833 251.219 159.76 251.219ZM174.129 242.961V244.125C173.249 244.125 172.634 244.307 172.285 244.672C171.936 245.036 171.762 245.635 171.762 246.469V248.719C171.762 249.516 171.671 250.187 171.488 250.734C171.311 251.276 171.038 251.711 170.668 252.039C170.298 252.367 169.829 252.604 169.262 252.75C168.694 252.896 168.025 252.969 167.254 252.969V251.117C167.858 251.117 168.329 251.029 168.668 250.852C169.007 250.669 169.241 250.393 169.371 250.023C169.507 249.648 169.574 249.174 169.574 248.602V245.758C169.574 245.357 169.634 244.987 169.754 244.648C169.874 244.305 170.095 244.008 170.418 243.758C170.741 243.503 171.202 243.307 171.801 243.172C172.4 243.031 173.176 242.961 174.129 242.961ZM167.254 233.039C168.025 233.039 168.694 233.112 169.262 233.258C169.829 233.404 170.298 233.641 170.668 233.969C171.038 234.297 171.311 234.734 171.488 235.281C171.671 235.823 171.762 236.492 171.762 237.289V239.531C171.762 240.37 171.936 240.971 172.285 241.336C172.634 241.695 173.249 241.875 174.129 241.875V243.047C173.176 243.047 172.4 242.977 171.801 242.836C171.202 242.695 170.741 242.5 170.418 242.25C170.095 242 169.874 241.706 169.754 241.367C169.634 241.023 169.574 240.651 169.574 240.25V237.406C169.574 236.828 169.507 236.354 169.371 235.984C169.241 235.609 169.007 235.333 168.668 235.156C168.329 234.979 167.858 234.891 167.254 234.891V233.039ZM174.129 241.875V244.125H171.965V241.875H174.129Z" fill="black"/>
<path d="M305.294 157.216L305.185 158.31C305.098 159.185 304.933 160.056 304.688 160.925C304.449 161.8 304.197 162.592 303.932 163.301C303.673 164.01 303.464 164.567 303.305 164.972H300.561C300.661 164.58 300.796 164.034 300.969 163.331C301.141 162.635 301.304 161.853 301.456 160.984C301.608 160.116 301.705 159.231 301.744 158.33L301.794 157.216H305.294ZM322.178 160.278C320.693 160.278 319.37 160.023 318.21 159.513C317.057 158.996 316.145 158.286 315.476 157.385C314.813 156.477 314.472 155.429 314.452 154.243H318.787C318.813 154.74 318.976 155.178 319.274 155.555C319.579 155.927 319.983 156.215 320.487 156.42C320.991 156.626 321.558 156.729 322.188 156.729C322.844 156.729 323.424 156.613 323.928 156.381C324.431 156.149 324.826 155.827 325.111 155.416C325.396 155.005 325.538 154.531 325.538 153.994C325.538 153.451 325.386 152.97 325.081 152.553C324.783 152.128 324.352 151.797 323.788 151.558C323.232 151.32 322.569 151.2 321.8 151.2H319.901V148.038H321.8C322.449 148.038 323.023 147.926 323.52 147.7C324.024 147.475 324.415 147.163 324.693 146.766C324.972 146.361 325.111 145.891 325.111 145.354C325.111 144.843 324.988 144.396 324.743 144.011C324.504 143.62 324.166 143.315 323.729 143.097C323.298 142.878 322.794 142.768 322.217 142.768C321.634 142.768 321.1 142.875 320.616 143.087C320.133 143.292 319.745 143.587 319.453 143.972C319.161 144.356 319.006 144.807 318.986 145.324H314.859C314.879 144.151 315.214 143.116 315.864 142.222C316.513 141.327 317.388 140.627 318.489 140.124C319.596 139.613 320.845 139.358 322.237 139.358C323.643 139.358 324.872 139.613 325.926 140.124C326.98 140.634 327.799 141.323 328.382 142.192C328.972 143.054 329.264 144.021 329.257 145.095C329.264 146.235 328.909 147.187 328.193 147.949C327.484 148.711 326.559 149.195 325.419 149.401V149.56C326.917 149.752 328.057 150.272 328.839 151.121C329.628 151.963 330.019 153.017 330.013 154.283C330.019 155.443 329.685 156.473 329.009 157.375C328.339 158.277 327.414 158.986 326.234 159.503C325.054 160.02 323.702 160.278 322.178 160.278Z" fill="black"/>
</svg>
