<svg width="400" height="300" viewBox="0 0 400 300" fill="none" xmlns="http://www.w3.org/2000/svg">
<rect width="400" height="300" fill="white"/>
<rect x="13" y="18" width="275" height="163" fill="white" stroke="black" stroke-width="2"/>
<circle cx="53.5" cy="57.5" r="27.5" fill="#9B9FE4"/>
<path d="M53.2109 66.2187C52.0443 66.2187 51.0052 66.0182 50.0938 65.6172C49.1875 65.2109 48.4714 64.6536 47.9453 63.9453C47.4245 63.2318 47.1563 62.4089 47.1406 61.4766H50.5469C50.5677 61.8672 50.6953 62.2109 50.9297 62.5078C51.1693 62.7995 51.487 63.026 51.8828 63.1875C52.2786 63.349 52.724 63.4297 53.2188 63.4297C53.7344 63.4297 54.1901 63.3385 54.5859 63.1562C54.9818 62.974 55.2917 62.7214 55.5156 62.3984C55.7396 62.0755 55.8516 61.7031 55.8516 61.2812C55.8516 60.8542 55.7318 60.4766 55.4922 60.1484C55.2578 59.8151 54.9193 59.5547 54.4766 59.3672C54.0391 59.1797 53.5182 59.0859 52.9141 59.0859H51.4219V56.6016H52.9141C53.4245 56.6016 53.875 56.513 54.2656 56.3359C54.6615 56.1589 54.9688 55.9141 55.1875 55.6016C55.4063 55.2839 55.5156 54.9141 55.5156 54.4922C55.5156 54.0911 55.4193 53.7396 55.2266 53.4375C55.0391 53.1302 54.7734 52.8906 54.4297 52.7187C54.0911 52.5469 53.6953 52.4609 53.2422 52.4609C52.7839 52.4609 52.3646 52.5443 51.9844 52.7109C51.6042 52.8724 51.2995 53.1042 51.0703 53.4062C50.8411 53.7083 50.7188 54.0625 50.7031 54.4687H47.4609C47.4766 53.5469 47.7396 52.7344 48.25 52.0312C48.7604 51.3281 49.4479 50.7786 50.3125 50.3828C51.1823 49.9818 52.1641 49.7812 53.2578 49.7812C54.362 49.7812 55.3281 49.9818 56.1563 50.3828C56.9844 50.7839 57.6276 51.3255 58.0859 52.0078C58.5495 52.6849 58.7786 53.4453 58.7734 54.2891C58.7786 55.1849 58.5 55.9323 57.9375 56.5312C57.3802 57.1302 56.6536 57.5104 55.7578 57.6719V57.7969C56.9349 57.9479 57.8307 58.3568 58.4453 59.0234C59.0651 59.6849 59.3724 60.513 59.3672 61.5078C59.3724 62.4193 59.1094 63.2292 58.5781 63.9375C58.0521 64.6458 57.3255 65.2031 56.3984 65.6094C55.4714 66.0156 54.4089 66.2187 53.2109 66.2187Z" fill="black"/>
<circle cx="131.5" cy="76.5" r="27.5" fill="#CFE49B"/>
<path d="M125.93 85L132.563 71.875V71.7656H124.836V69H136.063V71.8047L129.422 85H125.93Z" fill="black"/>
<circle cx="212.5" cy="57.5" r="27.5" fill="#E4C89B"/>
<path d="M212.438 66.2187C211.615 66.2135 210.82 66.0755 210.055 65.8047C209.294 65.5339 208.612 65.0937 208.008 64.4844C207.404 63.875 206.924 63.0677 206.57 62.0625C206.221 61.0573 206.047 59.8229 206.047 58.3594C206.052 57.0156 206.206 55.8151 206.508 54.7578C206.815 53.6953 207.253 52.7943 207.82 52.0547C208.393 51.3151 209.078 50.7526 209.875 50.3672C210.672 49.9766 211.565 49.7812 212.555 49.7812C213.622 49.7812 214.565 49.9896 215.383 50.4063C216.201 50.8177 216.857 51.3776 217.352 52.0859C217.852 52.7943 218.154 53.5885 218.258 54.4687H214.922C214.792 53.9115 214.518 53.474 214.102 53.1563C213.685 52.8385 213.169 52.6797 212.555 52.6797C211.513 52.6797 210.721 53.1328 210.18 54.0391C209.643 54.9453 209.37 56.1771 209.359 57.7344H209.469C209.708 57.2604 210.031 56.8568 210.438 56.5234C210.849 56.1849 211.315 55.9271 211.836 55.75C212.362 55.5677 212.917 55.4766 213.5 55.4766C214.448 55.4766 215.292 55.7005 216.031 56.1484C216.771 56.5911 217.354 57.2005 217.781 57.9766C218.208 58.7526 218.422 59.6406 218.422 60.6406C218.422 61.724 218.169 62.6875 217.664 63.5312C217.164 64.375 216.464 65.0365 215.563 65.5156C214.667 65.9896 213.625 66.224 212.438 66.2187ZM212.422 63.5625C212.943 63.5625 213.409 63.4375 213.82 63.1875C214.232 62.9375 214.555 62.599 214.789 62.1719C215.023 61.7448 215.141 61.2656 215.141 60.7344C215.141 60.2031 215.023 59.7266 214.789 59.3047C214.56 58.8828 214.242 58.5469 213.836 58.2969C213.43 58.0469 212.966 57.9219 212.445 57.9219C212.055 57.9219 211.693 57.9948 211.359 58.1406C211.031 58.2865 210.742 58.4896 210.492 58.75C210.247 59.0104 210.055 59.3125 209.914 59.6562C209.773 59.9948 209.703 60.3568 209.703 60.7422C209.703 61.2578 209.82 61.7292 210.055 62.1562C210.294 62.5833 210.617 62.9245 211.023 63.1797C211.435 63.4349 211.901 63.5625 212.422 63.5625Z" fill="black"/>
<circle cx="80.5" cy="139.5" r="27.5" fill="#9BDEE4"/>
<path d="M74.2969 148V145.562L79.9922 140.289C80.4766 139.82 80.8828 139.398 81.2109 139.023C81.5443 138.648 81.7969 138.281 81.9688 137.922C82.1406 137.557 82.2266 137.164 82.2266 136.742C82.2266 136.273 82.1198 135.87 81.9063 135.531C81.6927 135.187 81.401 134.924 81.0313 134.742C80.6615 134.555 80.2422 134.461 79.7734 134.461C79.2839 134.461 78.8568 134.56 78.4922 134.758C78.1276 134.956 77.8464 135.24 77.6484 135.609C77.4505 135.979 77.3516 136.419 77.3516 136.93H74.1406C74.1406 135.883 74.3776 134.974 74.8516 134.203C75.3255 133.432 75.9896 132.836 76.8438 132.414C77.6979 131.992 78.6823 131.781 79.7969 131.781C80.9427 131.781 81.9401 131.984 82.7891 132.391C83.6432 132.792 84.3073 133.349 84.7813 134.062C85.2552 134.776 85.4922 135.594 85.4922 136.516C85.4922 137.12 85.3724 137.716 85.1328 138.305C84.8984 138.893 84.4792 139.547 83.875 140.266C83.2708 140.979 82.4193 141.836 81.3203 142.836L78.9844 145.125V145.234H85.7031V148H74.2969Z" fill="black"/>
<circle cx="173.5" cy="127.5" r="27.5" fill="#9BE4CD"/>
<path d="M173.266 136.219C172.063 136.219 170.992 136.023 170.055 135.633C169.122 135.237 168.391 134.698 167.859 134.016C167.328 133.333 167.063 132.56 167.063 131.695C167.063 131.029 167.214 130.417 167.516 129.859C167.823 129.297 168.24 128.831 168.766 128.461C169.292 128.086 169.88 127.846 170.531 127.742V127.633C169.677 127.461 168.984 127.047 168.453 126.391C167.922 125.729 167.656 124.961 167.656 124.086C167.656 123.258 167.898 122.521 168.383 121.875C168.867 121.224 169.531 120.714 170.375 120.344C171.224 119.969 172.188 119.781 173.266 119.781C174.344 119.781 175.305 119.969 176.148 120.344C176.997 120.719 177.664 121.232 178.148 121.883C178.633 122.529 178.878 123.263 178.883 124.086C178.878 124.966 178.607 125.734 178.07 126.391C177.534 127.047 176.846 127.461 176.008 127.633V127.742C176.648 127.846 177.229 128.086 177.75 128.461C178.276 128.831 178.693 129.297 179 129.859C179.313 130.417 179.471 131.029 179.477 131.695C179.471 132.56 179.203 133.333 178.672 134.016C178.141 134.698 177.406 135.237 176.469 135.633C175.536 136.023 174.469 136.219 173.266 136.219ZM173.266 133.734C173.802 133.734 174.271 133.638 174.672 133.445C175.073 133.247 175.385 132.977 175.609 132.633C175.839 132.284 175.953 131.883 175.953 131.43C175.953 130.966 175.836 130.557 175.602 130.203C175.367 129.844 175.049 129.563 174.648 129.359C174.247 129.151 173.786 129.047 173.266 129.047C172.75 129.047 172.289 129.151 171.883 129.359C171.477 129.563 171.156 129.844 170.922 130.203C170.693 130.557 170.578 130.966 170.578 131.43C170.578 131.883 170.69 132.284 170.914 132.633C171.138 132.977 171.453 133.247 171.859 133.445C172.266 133.638 172.734 133.734 173.266 133.734ZM173.266 126.586C173.714 126.586 174.112 126.495 174.461 126.312C174.81 126.13 175.083 125.878 175.281 125.555C175.479 125.232 175.578 124.859 175.578 124.437C175.578 124.021 175.479 123.656 175.281 123.344C175.083 123.026 174.813 122.779 174.469 122.602C174.125 122.419 173.724 122.328 173.266 122.328C172.813 122.328 172.411 122.419 172.063 122.602C171.714 122.779 171.44 123.026 171.242 123.344C171.049 123.656 170.953 124.021 170.953 124.437C170.953 124.859 171.052 125.232 171.25 125.555C171.448 125.878 171.721 126.13 172.07 126.312C172.419 126.495 172.818 126.586 173.266 126.586Z" fill="black"/>
<circle cx="250.5" cy="130.5" r="27.5" fill="#E49BA1"/>
<path d="M253.258 123V139H249.875V126.211H249.781L246.117 128.508V125.508L250.078 123H253.258Z" fill="black"/>
<path d="M51.7109 208V210.5H44.4844V208H51.7109ZM46.125 205.125H49.4531V216.312C49.4531 216.62 49.5 216.859 49.5938 217.031C49.6875 217.198 49.8177 217.315 49.9844 217.383C50.1563 217.451 50.3542 217.484 50.5781 217.484C50.7344 217.484 50.8906 217.471 51.0469 217.445C51.2031 217.414 51.3229 217.391 51.4063 217.375L51.9297 219.852C51.763 219.904 51.5286 219.964 51.2266 220.031C50.9245 220.104 50.5573 220.148 50.125 220.164C49.3229 220.195 48.6198 220.089 48.0156 219.844C47.4167 219.599 46.9505 219.219 46.6172 218.703C46.2839 218.187 46.1198 217.536 46.125 216.75V205.125ZM59.7207 210.797V208.016H70.5098V210.797H59.7207ZM59.7207 215.984V213.203H70.5098V215.984H59.7207ZM85.9453 204V220H82.5625V207.211H82.4688L78.8047 209.508V206.508L82.7656 204H85.9453ZM95.8887 220.219C95.0658 220.214 94.2715 220.076 93.5059 219.805C92.7454 219.534 92.0632 219.094 91.459 218.484C90.8548 217.875 90.3757 217.068 90.0215 216.062C89.6725 215.057 89.498 213.823 89.498 212.359C89.5033 211.016 89.6569 209.815 89.959 208.758C90.2663 207.695 90.7038 206.794 91.2715 206.055C91.8444 205.315 92.5293 204.753 93.3262 204.367C94.123 203.977 95.0163 203.781 96.0059 203.781C97.0736 203.781 98.0163 203.99 98.834 204.406C99.6517 204.818 100.308 205.378 100.803 206.086C101.303 206.794 101.605 207.589 101.709 208.469H98.373C98.2428 207.911 97.9694 207.474 97.5527 207.156C97.1361 206.839 96.6204 206.68 96.0059 206.68C94.9642 206.68 94.1725 207.133 93.6309 208.039C93.0944 208.945 92.821 210.177 92.8105 211.734H92.9199C93.1595 211.26 93.4824 210.857 93.8887 210.523C94.3001 210.185 94.7663 209.927 95.2871 209.75C95.8132 209.568 96.3678 209.477 96.9512 209.477C97.8991 209.477 98.7428 209.701 99.4824 210.148C100.222 210.591 100.805 211.201 101.232 211.977C101.66 212.753 101.873 213.641 101.873 214.641C101.873 215.724 101.62 216.687 101.115 217.531C100.615 218.375 99.9147 219.036 99.0137 219.516C98.1178 219.99 97.0762 220.224 95.8887 220.219ZM95.873 217.562C96.3939 217.562 96.86 217.437 97.2715 217.188C97.6829 216.937 98.0059 216.599 98.2402 216.172C98.4746 215.745 98.5918 215.266 98.5918 214.734C98.5918 214.203 98.4746 213.727 98.2402 213.305C98.0111 212.883 97.6934 212.547 97.2871 212.297C96.8809 212.047 96.4173 211.922 95.8965 211.922C95.5059 211.922 95.1439 211.995 94.8105 212.141C94.4824 212.286 94.1934 212.49 93.9434 212.75C93.6986 213.01 93.5059 213.312 93.3652 213.656C93.2246 213.995 93.1543 214.357 93.1543 214.742C93.1543 215.258 93.2715 215.729 93.5059 216.156C93.7454 216.583 94.0684 216.924 94.4746 217.18C94.8861 217.435 95.3522 217.562 95.873 217.562Z" fill="black"/>
<circle cx="198.5" cy="251.5" r="27.5" fill="#9B9FE4"/>
<path d="M198.211 260.219C197.044 260.219 196.005 260.018 195.094 259.617C194.188 259.211 193.471 258.654 192.945 257.945C192.424 257.232 192.156 256.409 192.141 255.477H195.547C195.568 255.867 195.695 256.211 195.93 256.508C196.169 256.799 196.487 257.026 196.883 257.188C197.279 257.349 197.724 257.43 198.219 257.43C198.734 257.43 199.19 257.339 199.586 257.156C199.982 256.974 200.292 256.721 200.516 256.398C200.74 256.076 200.852 255.703 200.852 255.281C200.852 254.854 200.732 254.477 200.492 254.148C200.258 253.815 199.919 253.555 199.477 253.367C199.039 253.18 198.518 253.086 197.914 253.086H196.422V250.602H197.914C198.424 250.602 198.875 250.513 199.266 250.336C199.661 250.159 199.969 249.914 200.188 249.602C200.406 249.284 200.516 248.914 200.516 248.492C200.516 248.091 200.419 247.74 200.227 247.437C200.039 247.13 199.773 246.891 199.43 246.719C199.091 246.547 198.695 246.461 198.242 246.461C197.784 246.461 197.365 246.544 196.984 246.711C196.604 246.872 196.299 247.104 196.07 247.406C195.841 247.708 195.719 248.062 195.703 248.469H192.461C192.477 247.547 192.74 246.734 193.25 246.031C193.76 245.328 194.448 244.779 195.313 244.383C196.182 243.982 197.164 243.781 198.258 243.781C199.362 243.781 200.328 243.982 201.156 244.383C201.984 244.784 202.628 245.326 203.086 246.008C203.549 246.685 203.779 247.445 203.773 248.289C203.779 249.185 203.5 249.932 202.937 250.531C202.38 251.13 201.654 251.51 200.758 251.672V251.797C201.935 251.948 202.831 252.357 203.445 253.023C204.065 253.685 204.372 254.513 204.367 255.508C204.372 256.419 204.109 257.229 203.578 257.938C203.052 258.646 202.326 259.203 201.398 259.609C200.471 260.016 199.409 260.219 198.211 260.219Z" fill="black"/>
<circle cx="264.5" cy="251.5" r="27.5" fill="#CFE49B"/>
<path d="M258.93 260L265.563 246.875V246.766H257.836V244H269.063V246.805L262.422 260H258.93Z" fill="black"/>
<circle cx="330.5" cy="251.5" r="27.5" fill="#E4C89B"/>
<path d="M330.438 260.219C329.615 260.214 328.82 260.076 328.055 259.805C327.294 259.534 326.612 259.094 326.008 258.484C325.404 257.875 324.924 257.068 324.57 256.062C324.221 255.057 324.047 253.823 324.047 252.359C324.052 251.016 324.206 249.815 324.508 248.758C324.815 247.695 325.253 246.794 325.82 246.055C326.393 245.315 327.078 244.753 327.875 244.367C328.672 243.977 329.565 243.781 330.555 243.781C331.622 243.781 332.565 243.99 333.383 244.406C334.201 244.818 334.857 245.378 335.352 246.086C335.852 246.794 336.154 247.589 336.258 248.469H332.922C332.792 247.911 332.518 247.474 332.102 247.156C331.685 246.839 331.169 246.68 330.555 246.68C329.513 246.68 328.721 247.133 328.18 248.039C327.643 248.945 327.37 250.177 327.359 251.734H327.469C327.708 251.26 328.031 250.857 328.438 250.523C328.849 250.185 329.315 249.927 329.836 249.75C330.362 249.568 330.917 249.477 331.5 249.477C332.448 249.477 333.292 249.701 334.031 250.148C334.771 250.591 335.354 251.201 335.781 251.977C336.208 252.753 336.422 253.641 336.422 254.641C336.422 255.724 336.169 256.687 335.664 257.531C335.164 258.375 334.464 259.036 333.563 259.516C332.667 259.99 331.625 260.224 330.438 260.219ZM330.422 257.562C330.943 257.562 331.409 257.437 331.82 257.188C332.232 256.937 332.555 256.599 332.789 256.172C333.023 255.745 333.141 255.266 333.141 254.734C333.141 254.203 333.023 253.727 332.789 253.305C332.56 252.883 332.242 252.547 331.836 252.297C331.43 252.047 330.966 251.922 330.445 251.922C330.055 251.922 329.693 251.995 329.359 252.141C329.031 252.286 328.742 252.49 328.492 252.75C328.247 253.01 328.055 253.312 327.914 253.656C327.773 253.995 327.703 254.357 327.703 254.742C327.703 255.258 327.82 255.729 328.055 256.156C328.294 256.583 328.617 256.924 329.023 257.18C329.435 257.435 329.901 257.562 330.422 257.562Z" fill="black"/>
<path d="M144.791 250.868V248.652C147.192 248.652 148.847 248.176 149.756 247.224C150.679 246.273 151.141 244.611 151.141 242.239V233.972C151.141 232.153 151.318 230.577 151.673 229.241C152.028 227.892 152.597 226.784 153.378 225.918C154.159 225.037 155.182 224.384 156.446 223.957C157.724 223.531 159.28 223.318 161.112 223.318V226.557C159.521 226.557 158.25 226.82 157.298 227.345C156.361 227.857 155.686 228.659 155.274 229.753C154.876 230.847 154.678 232.253 154.678 233.972V243.368C154.678 244.575 154.536 245.648 154.251 246.585C153.967 247.509 153.463 248.29 152.739 248.929C152.014 249.568 151.006 250.051 149.713 250.378C148.435 250.705 146.794 250.868 144.791 250.868ZM161.112 277.864C159.28 277.864 157.724 277.651 156.446 277.224C155.182 276.798 154.159 276.145 153.378 275.264C152.597 274.398 152.028 273.29 151.673 271.94C151.318 270.605 151.141 269.028 151.141 267.21V258.943C151.141 256.571 150.679 254.909 149.756 253.957C148.847 253.006 147.192 252.53 144.791 252.53V250.314C146.794 250.314 148.435 250.477 149.713 250.804C151.006 251.131 152.014 251.614 152.739 252.253C153.463 252.892 153.967 253.68 154.251 254.618C154.536 255.541 154.678 256.607 154.678 257.814V267.21C154.678 268.929 154.876 270.328 155.274 271.408C155.686 272.501 156.361 273.311 157.298 273.837C158.25 274.362 159.521 274.625 161.112 274.625V277.864ZM144.791 252.53V248.652H149.67V252.53H144.791Z" fill="black"/>
<path d="M384.004 250.314V252.53C381.604 252.53 379.942 253.006 379.018 253.957C378.109 254.909 377.655 256.571 377.655 258.943V267.21C377.655 269.028 377.477 270.605 377.122 271.94C376.767 273.29 376.199 274.398 375.418 275.264C374.636 276.145 373.607 276.798 372.328 277.224C371.064 277.651 369.516 277.864 367.683 277.864V274.625C369.274 274.625 370.538 274.362 371.476 273.837C372.428 273.311 373.102 272.501 373.5 271.408C373.912 270.328 374.118 268.929 374.118 267.21V257.814C374.118 256.607 374.26 255.541 374.544 254.618C374.828 253.68 375.332 252.892 376.057 252.253C376.781 251.614 377.783 251.131 379.061 250.804C380.354 250.477 382.001 250.314 384.004 250.314ZM367.683 223.318C369.516 223.318 371.064 223.531 372.328 223.957C373.607 224.384 374.636 225.037 375.418 225.918C376.199 226.784 376.767 227.892 377.122 229.241C377.477 230.577 377.655 232.153 377.655 233.972V242.239C377.655 244.611 378.109 246.273 379.018 247.224C379.942 248.176 381.604 248.652 384.004 248.652V250.868C382.001 250.868 380.354 250.705 379.061 250.378C377.783 250.051 376.781 249.568 376.057 248.929C375.332 248.29 374.828 247.509 374.544 246.585C374.26 245.648 374.118 244.575 374.118 243.368V233.972C374.118 232.253 373.912 230.847 373.5 229.753C373.102 228.659 372.428 227.857 371.476 227.345C370.538 226.82 369.274 226.557 367.683 226.557V223.318ZM384.004 248.652V252.53H379.125V248.652H384.004Z" fill="black"/>
</svg>
