<svg width="361" height="163" viewBox="0 0 361 163" fill="none" xmlns="http://www.w3.org/2000/svg">
<path d="M146 92.5C146 127.451 113.667 156 73.5 156C33.3326 156 1 127.451 1 92.5C1 57.5486 33.3326 29 73.5 29C113.667 29 146 57.5486 146 92.5Z" fill="white" stroke="black" stroke-width="2"/>
<path d="M60.9332 12.1193C60.2969 12.1193 59.7301 12.0099 59.233 11.7912C58.7386 11.5696 58.348 11.2656 58.0611 10.8793C57.777 10.4901 57.6307 10.0412 57.6222 9.53267H59.4801C59.4915 9.74574 59.5611 9.93324 59.6889 10.0952C59.8196 10.2543 59.9929 10.3778 60.2088 10.4659C60.4247 10.554 60.6676 10.598 60.9375 10.598C61.2188 10.598 61.4673 10.5483 61.6832 10.4489C61.8991 10.3494 62.0682 10.2116 62.1903 10.0355C62.3125 9.85937 62.3736 9.65625 62.3736 9.42614C62.3736 9.19318 62.3082 8.98722 62.1776 8.80824C62.0497 8.62642 61.8651 8.48437 61.6236 8.3821C61.3849 8.27983 61.1009 8.22869 60.7713 8.22869H59.9574V6.87358H60.7713C61.0497 6.87358 61.2955 6.82528 61.5085 6.72869C61.7244 6.6321 61.892 6.49858 62.0114 6.32812C62.1307 6.15483 62.1903 5.95312 62.1903 5.72301C62.1903 5.50426 62.1378 5.3125 62.0327 5.14773C61.9304 4.98011 61.7855 4.84943 61.598 4.75568C61.4134 4.66193 61.1974 4.61506 60.9503 4.61506C60.7003 4.61506 60.4716 4.66051 60.2642 4.75142C60.0568 4.83949 59.8906 4.96591 59.7656 5.13068C59.6406 5.29545 59.5739 5.48864 59.5653 5.71023H57.7969C57.8054 5.20739 57.9489 4.7642 58.2273 4.38068C58.5057 3.99716 58.8807 3.69744 59.3523 3.48153C59.8267 3.26278 60.3622 3.15341 60.9588 3.15341C61.5611 3.15341 62.0881 3.26278 62.5398 3.48153C62.9915 3.70028 63.3423 3.99574 63.5923 4.3679C63.8452 4.73722 63.9702 5.15199 63.9673 5.61222C63.9702 6.10085 63.8182 6.50852 63.5114 6.83523C63.2074 7.16193 62.8111 7.36932 62.3224 7.45739V7.52557C62.9645 7.60795 63.4531 7.83097 63.7884 8.1946C64.1264 8.5554 64.294 9.0071 64.2912 9.54972C64.294 10.0469 64.1506 10.4886 63.8608 10.875C63.5739 11.2614 63.1776 11.5653 62.6719 11.7869C62.1662 12.0085 61.5866 12.1193 60.9332 12.1193ZM70.4031 5.78267C70.369 5.43892 70.2227 5.17187 69.9641 4.98153C69.7056 4.79119 69.3548 4.69602 68.9116 4.69602C68.6104 4.69602 68.3562 4.73864 68.1488 4.82386C67.9414 4.90625 67.7823 5.02131 67.6715 5.16903C67.5636 5.31676 67.5096 5.48438 67.5096 5.67188C67.5039 5.82812 67.5366 5.96449 67.6076 6.08097C67.6815 6.19744 67.7823 6.2983 67.9102 6.38352C68.038 6.46591 68.1857 6.53835 68.3533 6.60085C68.521 6.66051 68.6999 6.71165 68.8903 6.75426L69.6744 6.94176C70.055 7.02699 70.4045 7.14062 70.7227 7.28267C71.0408 7.42472 71.3164 7.59943 71.5494 7.80682C71.7823 8.0142 71.9627 8.25852 72.0906 8.53977C72.2212 8.82102 72.288 9.14347 72.2908 9.5071C72.288 10.0412 72.1516 10.5043 71.8817 10.8963C71.6147 11.2855 71.2283 11.5881 70.7227 11.804C70.2198 12.017 69.6133 12.1236 68.9031 12.1236C68.1985 12.1236 67.5849 12.0156 67.0621 11.7997C66.5423 11.5838 66.136 11.2642 65.8434 10.8409C65.5536 10.4148 65.4016 9.88778 65.3874 9.25994H67.1729C67.1928 9.55256 67.2766 9.79687 67.4244 9.9929C67.5749 10.1861 67.7752 10.3324 68.0252 10.4318C68.2781 10.5284 68.5636 10.5767 68.8817 10.5767C69.1942 10.5767 69.4656 10.5312 69.6957 10.4403C69.9286 10.3494 70.109 10.223 70.2369 10.0611C70.3647 9.89915 70.4286 9.71307 70.4286 9.50284C70.4286 9.30682 70.3704 9.14205 70.2539 9.00852C70.1403 8.875 69.9727 8.76136 69.7511 8.66761C69.5323 8.57386 69.2638 8.48864 68.9457 8.41193L67.9954 8.1733C67.2596 7.99432 66.6786 7.71449 66.2525 7.33381C65.8263 6.95312 65.6147 6.44034 65.6175 5.79545C65.6147 5.26705 65.7553 4.8054 66.0394 4.41051C66.3263 4.01562 66.7198 3.70739 67.2198 3.4858C67.7198 3.2642 68.288 3.15341 68.9244 3.15341C69.5721 3.15341 70.1374 3.2642 70.6204 3.4858C71.1062 3.70739 71.484 4.01562 71.7539 4.41051C72.0238 4.8054 72.163 5.26278 72.1715 5.78267H70.4031ZM74.837 12H72.8597L75.8725 3.27273H78.2504L81.2589 12H79.2816L77.0955 5.26705H77.0273L74.837 12ZM74.7134 8.5696H79.3839V10.0099H74.7134V8.5696ZM80.9105 4.79403V3.27273H88.0781V4.79403H85.4062V12H83.5824V4.79403H80.9105Z" fill="black"/>
<path d="M251.335 3.27273L253.445 9.90341H253.526L255.639 3.27273H257.685L254.676 12H252.298L249.286 3.27273H251.335ZM260.946 12.1278C260.272 12.1278 259.693 11.9915 259.207 11.7188C258.724 11.4432 258.352 11.054 258.091 10.5511C257.829 10.0455 257.699 9.44744 257.699 8.7571C257.699 8.08381 257.829 7.4929 258.091 6.98438C258.352 6.47585 258.72 6.07955 259.194 5.79545C259.672 5.51136 260.231 5.36932 260.873 5.36932C261.305 5.36932 261.707 5.43892 262.079 5.57812C262.454 5.71449 262.781 5.92045 263.059 6.19602C263.341 6.47159 263.559 6.81818 263.716 7.2358C263.872 7.65057 263.95 8.13636 263.95 8.69318V9.19176H258.423V8.06676H262.241C262.241 7.8054 262.184 7.57386 262.071 7.37216C261.957 7.17045 261.799 7.01278 261.598 6.89915C261.399 6.78267 261.167 6.72443 260.903 6.72443C260.627 6.72443 260.383 6.78835 260.17 6.91619C259.96 7.04119 259.795 7.21023 259.676 7.4233C259.556 7.63352 259.495 7.8679 259.493 8.12642V9.19602C259.493 9.51989 259.552 9.79972 259.672 10.0355C259.794 10.2713 259.966 10.4531 260.187 10.581C260.409 10.7088 260.672 10.7727 260.975 10.7727C261.177 10.7727 261.362 10.7443 261.529 10.6875C261.697 10.6307 261.841 10.5455 261.96 10.4318C262.079 10.3182 262.17 10.179 262.233 10.0142L263.912 10.125C263.826 10.5284 263.652 10.8807 263.387 11.1818C263.126 11.4801 262.788 11.7131 262.373 11.8807C261.961 12.0455 261.485 12.1278 260.946 12.1278ZM265.135 12V5.45455H266.895V6.59659H266.963C267.082 6.19034 267.282 5.88352 267.564 5.67614C267.845 5.46591 268.169 5.3608 268.535 5.3608C268.626 5.3608 268.724 5.36648 268.829 5.37784C268.934 5.3892 269.027 5.40483 269.106 5.42472V7.03551C269.021 7.00994 268.903 6.98722 268.752 6.96733C268.602 6.94744 268.464 6.9375 268.339 6.9375C268.072 6.9375 267.833 6.99574 267.623 7.11222C267.416 7.22585 267.251 7.38494 267.129 7.58949C267.01 7.79403 266.95 8.02983 266.95 8.29688V12H265.135ZM273.854 5.45455V6.81818H269.913V5.45455H273.854ZM270.808 3.88636H272.623V9.98864C272.623 10.1562 272.648 10.2869 272.7 10.3807C272.751 10.4716 272.822 10.5355 272.913 10.5724C273.006 10.6094 273.114 10.6278 273.237 10.6278C273.322 10.6278 273.407 10.6207 273.492 10.6065C273.577 10.5895 273.643 10.5767 273.688 10.5682L273.974 11.919C273.883 11.9474 273.755 11.9801 273.59 12.017C273.425 12.0568 273.225 12.081 272.989 12.0895C272.552 12.1065 272.168 12.0483 271.839 11.9148C271.512 11.7812 271.258 11.5739 271.076 11.2926C270.894 11.0114 270.805 10.6562 270.808 10.2273V3.88636ZM277.95 12.1278C277.276 12.1278 276.697 11.9915 276.211 11.7188C275.728 11.4432 275.356 11.054 275.094 10.5511C274.833 10.0455 274.702 9.44744 274.702 8.7571C274.702 8.08381 274.833 7.4929 275.094 6.98438C275.356 6.47585 275.724 6.07955 276.198 5.79545C276.675 5.51136 277.235 5.36932 277.877 5.36932C278.309 5.36932 278.711 5.43892 279.083 5.57812C279.458 5.71449 279.785 5.92045 280.063 6.19602C280.344 6.47159 280.563 6.81818 280.719 7.2358C280.876 7.65057 280.954 8.13636 280.954 8.69318V9.19176H275.427V8.06676H279.245C279.245 7.8054 279.188 7.57386 279.075 7.37216C278.961 7.17045 278.803 7.01278 278.602 6.89915C278.403 6.78267 278.171 6.72443 277.907 6.72443C277.631 6.72443 277.387 6.78835 277.174 6.91619C276.964 7.04119 276.799 7.21023 276.68 7.4233C276.56 7.63352 276.499 7.8679 276.496 8.12642V9.19602C276.496 9.51989 276.556 9.79972 276.675 10.0355C276.798 10.2713 276.969 10.4531 277.191 10.581C277.413 10.7088 277.675 10.7727 277.979 10.7727C278.181 10.7727 278.366 10.7443 278.533 10.6875C278.701 10.6307 278.844 10.5455 278.964 10.4318C279.083 10.3182 279.174 10.179 279.237 10.0142L280.915 10.125C280.83 10.5284 280.656 10.8807 280.391 11.1818C280.13 11.4801 279.792 11.7131 279.377 11.8807C278.965 12.0455 278.489 12.1278 277.95 12.1278ZM283.538 5.45455L284.74 7.7429L285.972 5.45455H287.834L285.938 8.72727L287.885 12H286.031L284.74 9.73722L283.47 12H281.595L283.538 8.72727L281.663 5.45455H283.538ZM299.424 6.32812H297.557C297.523 6.08665 297.453 5.87216 297.348 5.68466C297.243 5.49432 297.108 5.33239 296.944 5.19886C296.779 5.06534 296.588 4.96307 296.373 4.89205C296.159 4.82102 295.928 4.78551 295.678 4.78551C295.226 4.78551 294.833 4.89773 294.498 5.12216C294.162 5.34375 293.902 5.66761 293.718 6.09375C293.533 6.51705 293.441 7.03125 293.441 7.63636C293.441 8.25852 293.533 8.78125 293.718 9.20455C293.905 9.62784 294.167 9.94744 294.502 10.1634C294.837 10.3793 295.225 10.4872 295.665 10.4872C295.912 10.4872 296.141 10.4545 296.351 10.3892C296.564 10.3239 296.753 10.2287 296.918 10.1037C297.083 9.97585 297.219 9.82102 297.327 9.6392C297.438 9.45739 297.515 9.25 297.557 9.01705L299.424 9.02557C299.375 9.42614 299.255 9.8125 299.061 10.1847C298.871 10.554 298.614 10.8849 298.29 11.1776C297.969 11.4673 297.586 11.6974 297.14 11.8679C296.696 12.0355 296.195 12.1193 295.635 12.1193C294.857 12.1193 294.161 11.9432 293.547 11.5909C292.936 11.2386 292.453 10.7287 292.098 10.0611C291.746 9.39347 291.57 8.58523 291.57 7.63636C291.57 6.68466 291.749 5.875 292.107 5.20739C292.465 4.53977 292.951 4.03125 293.564 3.68182C294.178 3.32955 294.868 3.15341 295.635 3.15341C296.141 3.15341 296.61 3.22443 297.042 3.36648C297.476 3.50852 297.861 3.71591 298.196 3.98864C298.532 4.25852 298.804 4.58949 299.015 4.98153C299.228 5.37358 299.364 5.82244 299.424 6.32812ZM303.67 12.1278C303.008 12.1278 302.436 11.9872 301.953 11.706C301.473 11.4219 301.102 11.027 300.841 10.5213C300.579 10.0128 300.449 9.4233 300.449 8.75284C300.449 8.0767 300.579 7.4858 300.841 6.98011C301.102 6.47159 301.473 6.0767 301.953 5.79545C302.436 5.51136 303.008 5.36932 303.67 5.36932C304.332 5.36932 304.903 5.51136 305.383 5.79545C305.866 6.0767 306.238 6.47159 306.5 6.98011C306.761 7.4858 306.892 8.0767 306.892 8.75284C306.892 9.4233 306.761 10.0128 306.5 10.5213C306.238 11.027 305.866 11.4219 305.383 11.706C304.903 11.9872 304.332 12.1278 303.67 12.1278ZM303.679 10.7216C303.98 10.7216 304.231 10.6364 304.433 10.4659C304.635 10.2926 304.787 10.0568 304.889 9.75852C304.994 9.46023 305.047 9.12074 305.047 8.74006C305.047 8.35938 304.994 8.01989 304.889 7.72159C304.787 7.4233 304.635 7.1875 304.433 7.0142C304.231 6.84091 303.98 6.75426 303.679 6.75426C303.375 6.75426 303.119 6.84091 302.912 7.0142C302.707 7.1875 302.552 7.4233 302.447 7.72159C302.345 8.01989 302.294 8.35938 302.294 8.74006C302.294 9.12074 302.345 9.46023 302.447 9.75852C302.552 10.0568 302.707 10.2926 302.912 10.4659C303.119 10.6364 303.375 10.7216 303.679 10.7216ZM313.963 5.45455L311.675 12H309.63L307.341 5.45455H309.259L310.618 10.1378H310.686L312.042 5.45455H313.963ZM317.664 12.1278C316.991 12.1278 316.412 11.9915 315.926 11.7188C315.443 11.4432 315.071 11.054 314.809 10.5511C314.548 10.0455 314.417 9.44744 314.417 8.7571C314.417 8.08381 314.548 7.4929 314.809 6.98438C315.071 6.47585 315.439 6.07955 315.913 5.79545C316.39 5.51136 316.95 5.36932 317.592 5.36932C318.024 5.36932 318.426 5.43892 318.798 5.57812C319.173 5.71449 319.5 5.92045 319.778 6.19602C320.059 6.47159 320.278 6.81818 320.434 7.2358C320.591 7.65057 320.669 8.13636 320.669 8.69318V9.19176H315.142V8.06676H318.96C318.96 7.8054 318.903 7.57386 318.789 7.37216C318.676 7.17045 318.518 7.01278 318.316 6.89915C318.118 6.78267 317.886 6.72443 317.622 6.72443C317.346 6.72443 317.102 6.78835 316.889 6.91619C316.679 7.04119 316.514 7.21023 316.395 7.4233C316.275 7.63352 316.214 7.8679 316.211 8.12642V9.19602C316.211 9.51989 316.271 9.79972 316.39 10.0355C316.512 10.2713 316.684 10.4531 316.906 10.581C317.127 10.7088 317.39 10.7727 317.694 10.7727C317.896 10.7727 318.081 10.7443 318.248 10.6875C318.416 10.6307 318.559 10.5455 318.679 10.4318C318.798 10.3182 318.889 10.179 318.951 10.0142L320.63 10.125C320.545 10.5284 320.37 10.8807 320.106 11.1818C319.845 11.4801 319.507 11.7131 319.092 11.8807C318.68 12.0455 318.204 12.1278 317.664 12.1278ZM321.853 12V5.45455H323.613V6.59659H323.681C323.801 6.19034 324.001 5.88352 324.282 5.67614C324.564 5.46591 324.887 5.3608 325.254 5.3608C325.345 5.3608 325.443 5.36648 325.548 5.37784C325.653 5.3892 325.745 5.40483 325.825 5.42472V7.03551C325.74 7.00994 325.622 6.98722 325.471 6.96733C325.321 6.94744 325.183 6.9375 325.058 6.9375C324.791 6.9375 324.552 6.99574 324.342 7.11222C324.135 7.22585 323.97 7.38494 323.848 7.58949C323.728 7.79403 323.669 8.02983 323.669 8.29688V12H321.853Z" fill="black"/>
<path d="M4 110.125C4 56.625 142.5 56.625 142.5 110.125" stroke="black" stroke-width="2"/>
<path d="M62.3068 48.2727H63.517L65.9375 52.3466H66.0398L68.4602 48.2727H69.6705L66.517 53.4034V57H65.4602V53.4034L62.3068 48.2727ZM71.0373 57V48.2727H76.3043V49.2102H72.0941V52.1591H76.0316V53.0966H72.0941V56.0625H76.3725V57H71.0373ZM82.9819 50.4545C82.9308 50.0227 82.7234 49.6875 82.3597 49.4489C81.9961 49.2102 81.5501 49.0909 81.0217 49.0909C80.6353 49.0909 80.2972 49.1534 80.0075 49.2784C79.7205 49.4034 79.4961 49.5753 79.3342 49.794C79.1751 50.0128 79.0955 50.2614 79.0955 50.5398C79.0955 50.7727 79.1509 50.973 79.2617 51.1406C79.3754 51.3054 79.5202 51.4432 79.6964 51.554C79.8725 51.6619 80.0572 51.7514 80.2504 51.8224C80.4435 51.8906 80.6211 51.946 80.783 51.9886L81.6694 52.2273C81.8967 52.2869 82.1495 52.3693 82.4279 52.4744C82.7092 52.5795 82.9776 52.723 83.2333 52.9048C83.4918 53.0838 83.7049 53.3139 83.8725 53.5952C84.0401 53.8764 84.1239 54.2216 84.1239 54.6307C84.1239 55.1023 84.0004 55.5284 83.7532 55.9091C83.5089 56.2898 83.1509 56.5923 82.6793 56.8168C82.2106 57.0412 81.641 57.1534 80.9705 57.1534C80.3455 57.1534 79.8043 57.0526 79.3469 56.8509C78.8924 56.6491 78.5344 56.3679 78.2731 56.0071C78.0146 55.6463 77.8683 55.2273 77.8342 54.75H78.9251C78.9535 55.0795 79.0643 55.3523 79.2575 55.5682C79.4535 55.7812 79.7006 55.9403 79.9989 56.0455C80.3001 56.1477 80.6239 56.1989 80.9705 56.1989C81.3739 56.1989 81.7362 56.1335 82.0572 56.0028C82.3782 55.8693 82.6325 55.6847 82.82 55.4489C83.0075 55.2102 83.1012 54.9318 83.1012 54.6136C83.1012 54.3239 83.0202 54.0881 82.8583 53.9062C82.6964 53.7244 82.4833 53.5767 82.2191 53.4631C81.9549 53.3494 81.6694 53.25 81.3626 53.1648L80.2887 52.858C79.6069 52.6619 79.0671 52.3821 78.6694 52.0185C78.2717 51.6548 78.0728 51.179 78.0728 50.5909C78.0728 50.1023 78.2049 49.6761 78.4691 49.3125C78.7362 48.946 79.0941 48.6619 79.543 48.4602C79.9947 48.2557 80.4989 48.1534 81.0558 48.1534C81.6183 48.1534 82.1183 48.2543 82.5558 48.456C82.9933 48.6548 83.3398 48.9276 83.5955 49.2741C83.854 49.6207 83.9904 50.0142 84.0046 50.4545H82.9819Z" fill="#FF0000"/>
<path d="M71.9773 101.273V110H70.9545L66.1989 103.148H66.1136V110H65.0568V101.273H66.0795L70.8523 108.142H70.9375V101.273H71.9773ZM81.4556 105.636C81.4556 106.557 81.2894 107.352 80.957 108.023C80.6246 108.693 80.1687 109.21 79.5891 109.574C79.0096 109.938 78.3477 110.119 77.6033 110.119C76.859 110.119 76.1971 109.938 75.6175 109.574C75.038 109.21 74.582 108.693 74.2496 108.023C73.9173 107.352 73.7511 106.557 73.7511 105.636C73.7511 104.716 73.9173 103.92 74.2496 103.25C74.582 102.58 75.038 102.062 75.6175 101.699C76.1971 101.335 76.859 101.153 77.6033 101.153C78.3477 101.153 79.0096 101.335 79.5891 101.699C80.1687 102.062 80.6246 102.58 80.957 103.25C81.2894 103.92 81.4556 104.716 81.4556 105.636ZM80.4329 105.636C80.4329 104.881 80.3065 104.243 80.0536 103.723C79.8036 103.203 79.4641 102.81 79.0352 102.543C78.609 102.276 78.1317 102.142 77.6033 102.142C77.0749 102.142 76.5962 102.276 76.1673 102.543C75.7411 102.81 75.4016 103.203 75.1488 103.723C74.8988 104.243 74.7738 104.881 74.7738 105.636C74.7738 106.392 74.8988 107.03 75.1488 107.55C75.4016 108.07 75.7411 108.463 76.1673 108.73C76.5962 108.997 77.0749 109.131 77.6033 109.131C78.1317 109.131 78.609 108.997 79.0352 108.73C79.4641 108.463 79.8036 108.07 80.0536 107.55C80.3065 107.03 80.4329 106.392 80.4329 105.636Z" fill="#FF0000"/>
<path d="M360 98.5C360 133.451 327.667 162 287.5 162C247.333 162 215 133.451 215 98.5C215 63.5486 247.333 35 287.5 35C327.667 35 360 63.5486 360 98.5Z" fill="white" stroke="black" stroke-width="2"/>
<path d="M218 116.125C218 62.625 356.5 62.625 356.5 116.125" stroke="black" stroke-width="2"/>
<path d="M276.307 54.2727H277.517L279.938 58.3466H280.04L282.46 54.2727H283.67L280.517 59.4034V63H279.46V59.4034L276.307 54.2727ZM285.037 63V54.2727H290.304V55.2102H286.094V58.1591H290.032V59.0966H286.094V62.0625H290.373V63H285.037ZM296.982 56.4545C296.931 56.0227 296.723 55.6875 296.36 55.4489C295.996 55.2102 295.55 55.0909 295.022 55.0909C294.635 55.0909 294.297 55.1534 294.007 55.2784C293.721 55.4034 293.496 55.5753 293.334 55.794C293.175 56.0128 293.096 56.2614 293.096 56.5398C293.096 56.7727 293.151 56.973 293.262 57.1406C293.375 57.3054 293.52 57.4432 293.696 57.554C293.873 57.6619 294.057 57.7514 294.25 57.8224C294.444 57.8906 294.621 57.946 294.783 57.9886L295.669 58.2273C295.897 58.2869 296.15 58.3693 296.428 58.4744C296.709 58.5795 296.978 58.723 297.233 58.9048C297.492 59.0838 297.705 59.3139 297.873 59.5952C298.04 59.8764 298.124 60.2216 298.124 60.6307C298.124 61.1023 298 61.5284 297.753 61.9091C297.509 62.2898 297.151 62.5923 296.679 62.8168C296.211 63.0412 295.641 63.1534 294.971 63.1534C294.346 63.1534 293.804 63.0526 293.347 62.8509C292.892 62.6491 292.534 62.3679 292.273 62.0071C292.015 61.6463 291.868 61.2273 291.834 60.75H292.925C292.953 61.0795 293.064 61.3523 293.257 61.5682C293.453 61.7812 293.701 61.9403 293.999 62.0455C294.3 62.1477 294.624 62.1989 294.971 62.1989C295.374 62.1989 295.736 62.1335 296.057 62.0028C296.378 61.8693 296.632 61.6847 296.82 61.4489C297.007 61.2102 297.101 60.9318 297.101 60.6136C297.101 60.3239 297.02 60.0881 296.858 59.9062C296.696 59.7244 296.483 59.5767 296.219 59.4631C295.955 59.3494 295.669 59.25 295.363 59.1648L294.289 58.858C293.607 58.6619 293.067 58.3821 292.669 58.0185C292.272 57.6548 292.073 57.179 292.073 56.5909C292.073 56.1023 292.205 55.6761 292.469 55.3125C292.736 54.946 293.094 54.6619 293.543 54.4602C293.995 54.2557 294.499 54.1534 295.056 54.1534C295.618 54.1534 296.118 54.2543 296.556 54.456C296.993 54.6548 297.34 54.9276 297.596 55.2741C297.854 55.6207 297.99 56.0142 298.005 56.4545H296.982Z" fill="#FF0000"/>
<path d="M285.977 107.273V116H284.955L280.199 109.148H280.114V116H279.057V107.273H280.08L284.852 114.142H284.938V107.273H285.977ZM295.456 111.636C295.456 112.557 295.289 113.352 294.957 114.023C294.625 114.693 294.169 115.21 293.589 115.574C293.01 115.938 292.348 116.119 291.603 116.119C290.859 116.119 290.197 115.938 289.618 115.574C289.038 115.21 288.582 114.693 288.25 114.023C287.917 113.352 287.751 112.557 287.751 111.636C287.751 110.716 287.917 109.92 288.25 109.25C288.582 108.58 289.038 108.062 289.618 107.699C290.197 107.335 290.859 107.153 291.603 107.153C292.348 107.153 293.01 107.335 293.589 107.699C294.169 108.062 294.625 108.58 294.957 109.25C295.289 109.92 295.456 110.716 295.456 111.636ZM294.433 111.636C294.433 110.881 294.306 110.243 294.054 109.723C293.804 109.203 293.464 108.81 293.035 108.543C292.609 108.276 292.132 108.142 291.603 108.142C291.075 108.142 290.596 108.276 290.167 108.543C289.741 108.81 289.402 109.203 289.149 109.723C288.899 110.243 288.774 110.881 288.774 111.636C288.774 112.392 288.899 113.03 289.149 113.55C289.402 114.07 289.741 114.463 290.167 114.73C290.596 114.997 291.075 115.131 291.603 115.131C292.132 115.131 292.609 114.997 293.035 114.73C293.464 114.463 293.804 114.07 294.054 113.55C294.306 113.03 294.433 112.392 294.433 111.636Z" fill="#FF0000"/>
<circle cx="100" cy="48" r="3" fill="black"/>
<circle cx="324" cy="111" r="3" fill="black"/>
<circle cx="284" cy="137" r="3" fill="black"/>
<circle cx="257" cy="108" r="3" fill="black"/>
<circle cx="106" cy="95" r="3" fill="black"/>
<circle cx="342" cy="81" r="3" fill="black"/>
<circle cx="318" cy="64" r="3" fill="black"/>
<circle cx="235" cy="70" r="3" fill="black"/>
<circle cx="257" cy="60" r="3" fill="black"/>
<circle cx="100" cy="122" r="3" fill="black"/>
<circle cx="115" cy="61" r="3" fill="black"/>
<circle cx="263" cy="125" r="3" fill="black"/>
<circle cx="121" cy="113" r="3" fill="black"/>
<line x1="97.0405" y1="47.5016" x2="257.04" y2="60.5016" stroke="black"/>
<line x1="115.036" y1="60.5013" x2="238.036" y2="69.5013" stroke="black"/>
<line x1="120.989" y1="112.5" x2="256.989" y2="109.5" stroke="black"/>
<line x1="100.041" y1="121.502" x2="284.041" y2="136.502" stroke="black"/>
<line x1="106.094" y1="94.5089" x2="263.094" y2="124.509" stroke="black"/>
</svg>
