<svg width="350" height="200" viewBox="0 0 350 200" fill="none" xmlns="http://www.w3.org/2000/svg">
<rect width="350" height="200" fill="white"/>
<circle cx="95.5" cy="112.5" r="70.5" stroke="black" stroke-width="2"/>
<circle cx="95.5" cy="132.5" r="50.5" stroke="black" stroke-width="2"/>
<circle cx="254.5" cy="112.5" r="70.5" stroke="black" stroke-width="2"/>
<path d="M95.0582 59.2727V68H93.4645L89.6676 62.5071H89.6037V68H87.7585V59.2727H89.3778L93.1449 64.7614H93.2216V59.2727H95.0582ZM96.5827 68V59.2727H100.026C100.688 59.2727 101.252 59.3991 101.718 59.652C102.184 59.902 102.539 60.25 102.783 60.696C103.03 61.1392 103.154 61.6506 103.154 62.2301C103.154 62.8097 103.029 63.321 102.779 63.7642C102.529 64.2074 102.167 64.5526 101.692 64.7997C101.221 65.0469 100.65 65.1705 99.979 65.1705H97.7844V63.6918H99.6808C100.036 63.6918 100.328 63.6307 100.559 63.5085C100.792 63.3835 100.965 63.2116 101.078 62.9929C101.195 62.7713 101.253 62.517 101.253 62.2301C101.253 61.9403 101.195 61.6875 101.078 61.4716C100.965 61.2528 100.792 61.0838 100.559 60.9645C100.326 60.8423 100.03 60.7812 99.6722 60.7812H98.4279V68H96.5827Z" fill="black"/>
<path d="M91.7585 137V128.273H95.2017C95.8636 128.273 96.4276 128.399 96.8935 128.652C97.3594 128.902 97.7145 129.25 97.9588 129.696C98.206 130.139 98.3295 130.651 98.3295 131.23C98.3295 131.81 98.2045 132.321 97.9545 132.764C97.7045 133.207 97.3423 133.553 96.8679 133.8C96.3963 134.047 95.8253 134.17 95.1548 134.17H92.9602V132.692H94.8565C95.2116 132.692 95.5043 132.631 95.7344 132.509C95.9673 132.384 96.1406 132.212 96.2543 131.993C96.3707 131.771 96.429 131.517 96.429 131.23C96.429 130.94 96.3707 130.687 96.2543 130.472C96.1406 130.253 95.9673 130.084 95.7344 129.964C95.5014 129.842 95.206 129.781 94.848 129.781H93.6037V137H91.7585Z" fill="black"/>
<path d="M238.759 117V108.273H242.202C242.864 108.273 243.428 108.399 243.893 108.652C244.359 108.902 244.714 109.25 244.959 109.696C245.206 110.139 245.33 110.651 245.33 111.23C245.33 111.81 245.205 112.321 244.955 112.764C244.705 113.207 244.342 113.553 243.868 113.8C243.396 114.047 242.825 114.17 242.155 114.17H239.96V112.692H241.857C242.212 112.692 242.504 112.631 242.734 112.509C242.967 112.384 243.141 112.212 243.254 111.993C243.371 111.771 243.429 111.517 243.429 111.23C243.429 110.94 243.371 110.687 243.254 110.472C243.141 110.253 242.967 110.084 242.734 109.964C242.501 109.842 242.206 109.781 241.848 109.781H240.604V117H238.759ZM246.903 111.98V110.463H252.788V111.98H246.903ZM246.903 114.81V113.293H252.788V114.81H246.903ZM261.984 108.273V117H260.39L256.593 111.507H256.529V117H254.684V108.273H256.304L260.071 113.761H260.147V108.273H261.984ZM263.509 117V108.273H266.952C267.614 108.273 268.178 108.399 268.643 108.652C269.109 108.902 269.464 109.25 269.709 109.696C269.956 110.139 270.08 110.651 270.08 111.23C270.08 111.81 269.955 112.321 269.705 112.764C269.455 113.207 269.092 113.553 268.618 113.8C268.146 114.047 267.575 114.17 266.905 114.17H264.71V112.692H266.607C266.962 112.692 267.254 112.631 267.484 112.509C267.717 112.384 267.891 112.212 268.004 111.993C268.121 111.771 268.179 111.517 268.179 111.23C268.179 110.94 268.121 110.687 268.004 110.472C267.891 110.253 267.717 110.084 267.484 109.964C267.251 109.842 266.956 109.781 266.598 109.781H265.354V117H263.509Z" fill="black"/>
<path d="M136.707 26V24.6705L139.814 21.794C140.078 21.5384 140.3 21.3082 140.479 21.1037C140.661 20.8991 140.798 20.6989 140.892 20.5028C140.986 20.304 141.033 20.0895 141.033 19.8594C141.033 19.6037 140.974 19.3835 140.858 19.1989C140.741 19.0114 140.582 18.8679 140.381 18.7685C140.179 18.6662 139.95 18.6151 139.695 18.6151C139.428 18.6151 139.195 18.669 138.996 18.777C138.797 18.8849 138.643 19.0398 138.536 19.2415C138.428 19.4432 138.374 19.6832 138.374 19.9616H136.622C136.622 19.3906 136.751 18.8949 137.01 18.4744C137.268 18.054 137.631 17.7287 138.097 17.4986C138.563 17.2685 139.099 17.1534 139.707 17.1534C140.332 17.1534 140.876 17.2642 141.339 17.4858C141.805 17.7045 142.168 18.0085 142.426 18.3977C142.685 18.7869 142.814 19.233 142.814 19.7358C142.814 20.0653 142.749 20.3906 142.618 20.7116C142.49 21.0327 142.261 21.3892 141.932 21.7812C141.602 22.1705 141.138 22.6378 140.538 23.1832L139.264 24.4318V24.4915H142.929V26H136.707ZM147.094 26V17.2727H150.538C151.2 17.2727 151.763 17.3991 152.229 17.652C152.695 17.902 153.05 18.25 153.295 18.696C153.542 19.1392 153.665 19.6506 153.665 20.2301C153.665 20.8097 153.54 21.321 153.29 21.7642C153.04 22.2074 152.678 22.5526 152.204 22.7997C151.732 23.0469 151.161 23.1705 150.491 23.1705H148.296V21.6918H150.192C150.548 21.6918 150.84 21.6307 151.07 21.5085C151.303 21.3835 151.477 21.2116 151.59 20.9929C151.707 20.7713 151.765 20.517 151.765 20.2301C151.765 19.9403 151.707 19.6875 151.59 19.4716C151.477 19.2528 151.303 19.0838 151.07 18.9645C150.837 18.8423 150.542 18.7812 150.184 18.7812H148.94V26H147.094ZM157.682 26.1278C157.02 26.1278 156.447 25.9872 155.964 25.706C155.484 25.4219 155.114 25.027 154.852 24.5213C154.591 24.0128 154.46 23.4233 154.46 22.7528C154.46 22.0767 154.591 21.4858 154.852 20.9801C155.114 20.4716 155.484 20.0767 155.964 19.7955C156.447 19.5114 157.02 19.3693 157.682 19.3693C158.344 19.3693 158.915 19.5114 159.395 19.7955C159.878 20.0767 160.25 20.4716 160.511 20.9801C160.773 21.4858 160.903 22.0767 160.903 22.7528C160.903 23.4233 160.773 24.0128 160.511 24.5213C160.25 25.027 159.878 25.4219 159.395 25.706C158.915 25.9872 158.344 26.1278 157.682 26.1278ZM157.69 24.7216C157.991 24.7216 158.243 24.6364 158.445 24.4659C158.646 24.2926 158.798 24.0568 158.901 23.7585C159.006 23.4602 159.058 23.1207 159.058 22.7401C159.058 22.3594 159.006 22.0199 158.901 21.7216C158.798 21.4233 158.646 21.1875 158.445 21.0142C158.243 20.8409 157.991 20.7543 157.69 20.7543C157.386 20.7543 157.131 20.8409 156.923 21.0142C156.719 21.1875 156.564 21.4233 156.459 21.7216C156.357 22.0199 156.305 22.3594 156.305 22.7401C156.305 23.1207 156.357 23.4602 156.459 23.7585C156.564 24.0568 156.719 24.2926 156.923 24.4659C157.131 24.6364 157.386 24.7216 157.69 24.7216ZM167.53 21.321L165.868 21.4233C165.839 21.2812 165.778 21.1534 165.685 21.0398C165.591 20.9233 165.467 20.831 165.314 20.7628C165.163 20.6918 164.983 20.6562 164.773 20.6562C164.491 20.6562 164.254 20.7159 164.061 20.8352C163.868 20.9517 163.771 21.108 163.771 21.304C163.771 21.4602 163.834 21.5923 163.959 21.7003C164.084 21.8082 164.298 21.8949 164.602 21.9602L165.787 22.1989C166.423 22.3295 166.898 22.5398 167.21 22.8295C167.523 23.1193 167.679 23.5 167.679 23.9716C167.679 24.4006 167.553 24.777 167.3 25.1009C167.05 25.4247 166.706 25.6776 166.268 25.8594C165.834 26.0384 165.332 26.1278 164.764 26.1278C163.898 26.1278 163.207 25.9474 162.693 25.5866C162.182 25.223 161.882 24.7287 161.794 24.1037L163.58 24.0099C163.634 24.2741 163.764 24.4759 163.972 24.6151C164.179 24.7514 164.445 24.8196 164.768 24.8196C165.087 24.8196 165.342 24.7585 165.536 24.6364C165.732 24.5114 165.831 24.3509 165.834 24.1548C165.831 23.9901 165.761 23.8551 165.625 23.75C165.489 23.642 165.278 23.5597 164.994 23.5028L163.861 23.277C163.222 23.1491 162.746 22.9276 162.433 22.6122C162.124 22.2969 161.969 21.8949 161.969 21.4062C161.969 20.9858 162.082 20.6236 162.31 20.3196C162.54 20.0156 162.862 19.7812 163.277 19.6165C163.695 19.4517 164.183 19.3693 164.743 19.3693C165.57 19.3693 166.22 19.544 166.695 19.8935C167.172 20.2429 167.45 20.7187 167.53 21.321ZM174.268 21.321L172.606 21.4233C172.578 21.2812 172.517 21.1534 172.423 21.0398C172.329 20.9233 172.206 20.831 172.052 20.7628C171.902 20.6918 171.721 20.6562 171.511 20.6562C171.23 20.6562 170.993 20.7159 170.799 20.8352C170.606 20.9517 170.51 21.108 170.51 21.304C170.51 21.4602 170.572 21.5923 170.697 21.7003C170.822 21.8082 171.037 21.8949 171.341 21.9602L172.525 22.1989C173.162 22.3295 173.636 22.5398 173.949 22.8295C174.261 23.1193 174.417 23.5 174.417 23.9716C174.417 24.4006 174.291 24.777 174.038 25.1009C173.788 25.4247 173.444 25.6776 173.007 25.8594C172.572 26.0384 172.071 26.1278 171.502 26.1278C170.636 26.1278 169.946 25.9474 169.431 25.5866C168.92 25.223 168.62 24.7287 168.532 24.1037L170.318 24.0099C170.372 24.2741 170.502 24.4759 170.71 24.6151C170.917 24.7514 171.183 24.8196 171.507 24.8196C171.825 24.8196 172.081 24.7585 172.274 24.6364C172.47 24.5114 172.569 24.3509 172.572 24.1548C172.569 23.9901 172.5 23.8551 172.363 23.75C172.227 23.642 172.017 23.5597 171.733 23.5028L170.599 23.277C169.96 23.1491 169.484 22.9276 169.172 22.6122C168.862 22.2969 168.707 21.8949 168.707 21.4062C168.707 20.9858 168.821 20.6236 169.048 20.3196C169.278 20.0156 169.6 19.7812 170.015 19.6165C170.433 19.4517 170.922 19.3693 171.481 19.3693C172.308 19.3693 172.958 19.544 173.433 19.8935C173.91 20.2429 174.189 20.7187 174.268 21.321ZM175.56 26V19.4545H177.376V26H175.56ZM176.472 18.6108C176.202 18.6108 175.971 18.5213 175.778 18.3423C175.587 18.1605 175.492 17.9432 175.492 17.6903C175.492 17.4403 175.587 17.2259 175.778 17.0469C175.971 16.8651 176.202 16.7741 176.472 16.7741C176.742 16.7741 176.972 16.8651 177.163 17.0469C177.356 17.2259 177.452 17.4403 177.452 17.6903C177.452 17.9432 177.356 18.1605 177.163 18.3423C176.972 18.5213 176.742 18.6108 176.472 18.6108ZM178.864 26V17.2727H180.679V20.554H180.735C180.814 20.3778 180.929 20.1989 181.08 20.017C181.233 19.8324 181.432 19.679 181.676 19.5568C181.924 19.4318 182.23 19.3693 182.597 19.3693C183.074 19.3693 183.515 19.4943 183.918 19.7443C184.321 19.9915 184.644 20.3651 184.885 20.8651C185.127 21.3622 185.248 21.9858 185.248 22.7358C185.248 23.4659 185.13 24.0824 184.894 24.5852C184.661 25.0852 184.343 25.4645 183.939 25.723C183.539 25.9787 183.09 26.1065 182.593 26.1065C182.24 26.1065 181.941 26.0483 181.694 25.9318C181.449 25.8153 181.249 25.669 181.093 25.4929C180.936 25.3139 180.817 25.1335 180.735 24.9517H180.654V26H178.864ZM180.641 22.7273C180.641 23.1165 180.695 23.456 180.803 23.7457C180.911 24.0355 181.067 24.2614 181.272 24.4233C181.476 24.5824 181.725 24.6619 182.017 24.6619C182.313 24.6619 182.563 24.581 182.767 24.419C182.972 24.2543 183.127 24.027 183.232 23.7372C183.34 23.4446 183.394 23.108 183.394 22.7273C183.394 22.3494 183.341 22.017 183.236 21.7301C183.131 21.4432 182.976 21.2187 182.772 21.0568C182.567 20.8949 182.316 20.8139 182.017 20.8139C181.722 20.8139 181.472 20.892 181.267 21.0483C181.066 21.2045 180.911 21.4261 180.803 21.7131C180.695 22 180.641 22.3381 180.641 22.7273ZM186.459 26V19.4545H188.274V26H186.459ZM187.371 18.6108C187.101 18.6108 186.869 18.5213 186.676 18.3423C186.486 18.1605 186.391 17.9432 186.391 17.6903C186.391 17.4403 186.486 17.2259 186.676 17.0469C186.869 16.8651 187.101 16.7741 187.371 16.7741C187.641 16.7741 187.871 16.8651 188.061 17.0469C188.254 17.2259 188.351 17.4403 188.351 17.6903C188.351 17.9432 188.254 18.1605 188.061 18.3423C187.871 18.5213 187.641 18.6108 187.371 18.6108ZM191.544 17.2727V26H189.728V17.2727H191.544ZM192.998 26V19.4545H194.813V26H192.998ZM193.91 18.6108C193.64 18.6108 193.408 18.5213 193.215 18.3423C193.025 18.1605 192.93 17.9432 192.93 17.6903C192.93 17.4403 193.025 17.2259 193.215 17.0469C193.408 16.8651 193.64 16.7741 193.91 16.7741C194.18 16.7741 194.41 16.8651 194.6 17.0469C194.793 17.2259 194.89 17.4403 194.89 17.6903C194.89 17.9432 194.793 18.1605 194.6 18.3423C194.41 18.5213 194.18 18.6108 193.91 18.6108ZM199.749 19.4545V20.8182H195.807V19.4545H199.749ZM196.702 17.8864H198.517V23.9886C198.517 24.1562 198.543 24.2869 198.594 24.3807C198.645 24.4716 198.716 24.5355 198.807 24.5724C198.901 24.6094 199.009 24.6278 199.131 24.6278C199.216 24.6278 199.301 24.6207 199.387 24.6065C199.472 24.5895 199.537 24.5767 199.583 24.5682L199.868 25.919C199.777 25.9474 199.65 25.9801 199.485 26.017C199.32 26.0568 199.12 26.081 198.884 26.0895C198.446 26.1065 198.063 26.0483 197.733 25.9148C197.407 25.7812 197.152 25.5739 196.971 25.2926C196.789 25.0114 196.699 24.6562 196.702 24.2273V17.8864ZM203.844 26.1278C203.171 26.1278 202.591 25.9915 202.105 25.7188C201.623 25.4432 201.25 25.054 200.989 24.5511C200.728 24.0455 200.597 23.4474 200.597 22.7571C200.597 22.0838 200.728 21.4929 200.989 20.9844C201.25 20.4759 201.618 20.0795 202.093 19.7955C202.57 19.5114 203.13 19.3693 203.772 19.3693C204.203 19.3693 204.605 19.4389 204.978 19.5781C205.353 19.7145 205.679 19.9205 205.958 20.196C206.239 20.4716 206.458 20.8182 206.614 21.2358C206.77 21.6506 206.848 22.1364 206.848 22.6932V23.1918H201.321V22.0668H205.14C205.14 21.8054 205.083 21.5739 204.969 21.3722C204.855 21.1705 204.698 21.0128 204.496 20.8991C204.297 20.7827 204.066 20.7244 203.801 20.7244C203.526 20.7244 203.282 20.7884 203.069 20.9162C202.858 21.0412 202.694 21.2102 202.574 21.4233C202.455 21.6335 202.394 21.8679 202.391 22.1264V23.196C202.391 23.5199 202.451 23.7997 202.57 24.0355C202.692 24.2713 202.864 24.4531 203.086 24.581C203.307 24.7088 203.57 24.7727 203.874 24.7727C204.076 24.7727 204.26 24.7443 204.428 24.6875C204.596 24.6307 204.739 24.5455 204.858 24.4318C204.978 24.3182 205.069 24.179 205.131 24.0142L206.81 24.125C206.725 24.5284 206.55 24.8807 206.286 25.1818C206.025 25.4801 205.686 25.7131 205.272 25.8807C204.86 26.0455 204.384 26.1278 203.844 26.1278ZM213.479 21.321L211.817 21.4233C211.789 21.2812 211.728 21.1534 211.634 21.0398C211.54 20.9233 211.417 20.831 211.263 20.7628C211.113 20.6918 210.932 20.6562 210.722 20.6562C210.441 20.6562 210.203 20.7159 210.01 20.8352C209.817 20.9517 209.721 21.108 209.721 21.304C209.721 21.4602 209.783 21.5923 209.908 21.7003C210.033 21.8082 210.248 21.8949 210.551 21.9602L211.736 22.1989C212.373 22.3295 212.847 22.5398 213.159 22.8295C213.472 23.1193 213.628 23.5 213.628 23.9716C213.628 24.4006 213.502 24.777 213.249 25.1009C212.999 25.4247 212.655 25.6776 212.218 25.8594C211.783 26.0384 211.282 26.1278 210.713 26.1278C209.847 26.1278 209.157 25.9474 208.642 25.5866C208.131 25.223 207.831 24.7287 207.743 24.1037L209.529 24.0099C209.583 24.2741 209.713 24.4759 209.921 24.6151C210.128 24.7514 210.394 24.8196 210.718 24.8196C211.036 24.8196 211.292 24.7585 211.485 24.6364C211.681 24.5114 211.78 24.3509 211.783 24.1548C211.78 23.9901 211.711 23.8551 211.574 23.75C211.438 23.642 211.228 23.5597 210.944 23.5028L209.81 23.277C209.171 23.1491 208.695 22.9276 208.382 22.6122C208.073 22.2969 207.918 21.8949 207.918 21.4062C207.918 20.9858 208.032 20.6236 208.259 20.3196C208.489 20.0156 208.811 19.7812 209.226 19.6165C209.644 19.4517 210.132 19.3693 210.692 19.3693C211.519 19.3693 212.169 19.544 212.644 19.8935C213.121 20.2429 213.4 20.7187 213.479 21.321Z" fill="black"/>
</svg>
