<svg width="400" height="300" viewBox="0 0 400 300" fill="none" xmlns="http://www.w3.org/2000/svg">
<rect width="400" height="300" fill="#F5F5F5"/>
<rect width="400" height="300" fill="white"/>
<line x1="140.787" y1="90.2768" x2="80.7873" y2="127.277" stroke="black" stroke-width="3"/>
<line x1="77.3379" y1="150.322" x2="113.338" y2="221.322" stroke="black" stroke-width="3"/>
<line x1="224.114" y1="225.496" x2="132.114" y2="232.496" stroke="black" stroke-width="3"/>
<line x1="234.705" y1="222.756" x2="154.705" y2="85.7564" stroke="black" stroke-width="3"/>
<line x1="236.135" y1="120.494" x2="70.135" y2="135.494" stroke="black" stroke-width="3"/>
<line x1="228.379" y1="218.366" x2="74.3793" y2="148.366" stroke="black" stroke-width="3"/>
<line x1="242.493" y1="130.149" x2="233.493" y2="220.149" stroke="black" stroke-width="3"/>
<line x1="240.438" y1="116.391" x2="151.438" y2="80.3905" stroke="black" stroke-width="3"/>
<circle cx="154" cy="79" r="16.5" fill="#2C82C9" stroke="black" stroke-width="3"/>
<circle cx="232" cy="222" r="16.5" fill="#2C82C9" stroke="black" stroke-width="3"/>
<circle cx="239" cy="121" r="16.5" fill="#2C82C9" stroke="black" stroke-width="3"/>
<circle cx="73" cy="139" r="16.5" fill="#2C82C9" stroke="black" stroke-width="3"/>
<circle cx="118" cy="233" r="16.5" fill="#2C82C9" stroke="black" stroke-width="3"/>
<circle cx="153.5" cy="78.5" r="29" stroke="#FF0000" stroke-width="5"/>
<circle cx="231.5" cy="221.5" r="29" stroke="#FF0000" stroke-width="5"/>
<circle cx="72.5" cy="138.5" r="29" stroke="#FF0000" stroke-width="5"/>
<path d="M310.344 160.547L310.352 156.555H310.836L314.68 152H318.5L313.336 158.031H312.547L310.344 160.547ZM307.328 164V148H310.656V164H307.328ZM314.828 164L311.297 158.773L313.516 156.422L318.727 164H314.828ZM325.975 154.797V152.016H336.764V154.797H325.975ZM325.975 159.984V157.203H336.764V159.984H325.975ZM351.152 164.219C349.986 164.219 348.947 164.018 348.035 163.617C347.129 163.211 346.413 162.654 345.887 161.945C345.366 161.232 345.098 160.409 345.082 159.477H348.488C348.509 159.867 348.637 160.211 348.871 160.508C349.111 160.799 349.428 161.026 349.824 161.188C350.22 161.349 350.665 161.43 351.16 161.43C351.676 161.43 352.132 161.339 352.527 161.156C352.923 160.974 353.233 160.721 353.457 160.398C353.681 160.076 353.793 159.703 353.793 159.281C353.793 158.854 353.673 158.477 353.434 158.148C353.199 157.815 352.861 157.555 352.418 157.367C351.98 157.18 351.46 157.086 350.855 157.086H349.363V154.602H350.855C351.366 154.602 351.816 154.513 352.207 154.336C352.603 154.159 352.91 153.914 353.129 153.602C353.348 153.284 353.457 152.914 353.457 152.492C353.457 152.091 353.361 151.74 353.168 151.437C352.98 151.13 352.715 150.891 352.371 150.719C352.033 150.547 351.637 150.461 351.184 150.461C350.725 150.461 350.306 150.544 349.926 150.711C349.546 150.872 349.241 151.104 349.012 151.406C348.783 151.708 348.66 152.062 348.645 152.469H345.402C345.418 151.547 345.681 150.734 346.191 150.031C346.702 149.328 347.389 148.779 348.254 148.383C349.124 147.982 350.105 147.781 351.199 147.781C352.303 147.781 353.27 147.982 354.098 148.383C354.926 148.784 355.569 149.326 356.027 150.008C356.491 150.685 356.72 151.445 356.715 152.289C356.72 153.185 356.441 153.932 355.879 154.531C355.322 155.13 354.595 155.51 353.699 155.672V155.797C354.876 155.948 355.772 156.357 356.387 157.023C357.007 157.685 357.314 158.513 357.309 159.508C357.314 160.419 357.051 161.229 356.52 161.938C355.993 162.646 355.267 163.203 354.34 163.609C353.413 164.016 352.35 164.219 351.152 164.219Z" fill="black"/>
</svg>
